<?xml version="1.0" encoding="UTF-8" standalone="no"?>
<!-- Created with Inkscape (http://www.inkscape.org/) -->

<svg
   width="99.42067mm"
   height="35.225967mm"
   viewBox="0 0 99.42067 35.225967"
   version="1.1"
   id="svg5"
   xml:space="preserve"
   xmlns:inkscape="http://www.inkscape.org/namespaces/inkscape"
   xmlns:sodipodi="http://sodipodi.sourceforge.net/DTD/sodipodi-0.dtd"
   xmlns="http://www.w3.org/2000/svg"
   xmlns:svg="http://www.w3.org/2000/svg"><sodipodi:namedview
     id="namedview7"
     pagecolor="#ffffff"
     bordercolor="#000000"
     borderopacity="0.25"
     inkscape:showpageshadow="2"
     inkscape:pageopacity="0.0"
     inkscape:pagecheckerboard="0"
     inkscape:deskcolor="#d1d1d1"
     inkscape:document-units="mm"
     showgrid="false" /><defs
     id="defs2" /><g
     id="g242"
     transform="matrix(0.03527778,0,0,-0.03527778,-2.3394388e-4,35.463694)"><path
       d="m 50.5117,827.852 c 0,-12.114 -10.3125,-21.954 -23.0508,-21.954 -12.7304,0 -23.05074,9.84 -23.05074,21.954 0,12.148 10.32034,21.949 23.05074,21.949 12.7383,0 23.0508,-9.801 23.0508,-21.949 z"
       style="fill:#ffffff;fill-opacity:1;fill-rule:nonzero;stroke:none"
       id="path244" /><path
       d="m 50.5117,827.852 c 0,-12.114 -10.3125,-21.954 -23.0508,-21.954 -12.7304,0 -23.05074,9.84 -23.05074,21.954 0,12.148 10.32034,21.949 23.05074,21.949 12.7383,0 23.0508,-9.801 23.0508,-21.949 z"
       style="fill:none;stroke:#000000;stroke-width:8.80736;stroke-linecap:round;stroke-linejoin:round;stroke-miterlimit:4;stroke-dasharray:none;stroke-opacity:1"
       id="path246" /><path
       d="m 883.199,867.23 c 0,-12.109 -10.347,-21.96 -23.078,-21.96 -12.742,0 -23.051,9.851 -23.051,21.96 0,12.149 10.309,21.989 23.051,21.989 12.731,0 23.078,-9.84 23.078,-21.989 z"
       style="fill:#ffffff;fill-opacity:1;fill-rule:nonzero;stroke:none"
       id="path248" /><path
       d="m 883.199,867.23 c 0,-12.109 -10.347,-21.96 -23.078,-21.96 -12.742,0 -23.051,9.851 -23.051,21.96 0,12.149 10.309,21.989 23.051,21.989 12.731,0 23.078,-9.84 23.078,-21.989 z"
       style="fill:none;stroke:#000000;stroke-width:8.80737;stroke-linecap:round;stroke-linejoin:round;stroke-miterlimit:4;stroke-dasharray:none;stroke-opacity:1"
       id="path250" /><path
       d="m 1010.9,421.719 c 0,-12.149 -10.31,-21.989 -23.048,-21.989 -12.731,0 -23.051,9.84 -23.051,21.989 0,12.109 10.32,21.953 23.051,21.953 12.738,0 23.048,-9.844 23.048,-21.953 z"
       style="fill:#ffffff;fill-opacity:1;fill-rule:nonzero;stroke:none"
       id="path252" /><path
       d="m 1010.9,421.719 c 0,-12.149 -10.31,-21.989 -23.048,-21.989 -12.731,0 -23.051,9.84 -23.051,21.989 0,12.109 10.32,21.953 23.051,21.953 12.738,0 23.048,-9.844 23.048,-21.953 z"
       style="fill:none;stroke:#000000;stroke-width:8.80737;stroke-linecap:round;stroke-linejoin:round;stroke-miterlimit:4;stroke-dasharray:none;stroke-opacity:1"
       id="path254" /><path
       d="m 274.301,644.488 c 0,-12.148 -10.321,-21.988 -23.051,-21.988 -12.73,0 -23.051,9.84 -23.051,21.988 0,12.114 10.321,21.961 23.051,21.961 12.73,0 23.051,-9.847 23.051,-21.961 z"
       style="fill:#ffffff;fill-opacity:1;fill-rule:nonzero;stroke:none"
       id="path256" /><path
       d="m 274.301,644.488 c 0,-12.148 -10.321,-21.988 -23.051,-21.988 -12.73,0 -23.051,9.84 -23.051,21.988 0,12.114 10.321,21.961 23.051,21.961 12.73,0 23.051,-9.847 23.051,-21.961 z"
       style="fill:none;stroke:#0000ff;stroke-width:8.80737;stroke-linecap:round;stroke-linejoin:round;stroke-miterlimit:4;stroke-dasharray:none;stroke-opacity:1"
       id="path258" /><path
       d="m 256.48,371.211 c 0,-12.109 -10.308,-21.949 -23.039,-21.949 -12.742,0 -23.05,9.84 -23.05,21.949 0,12.148 10.308,21.988 23.05,21.988 12.731,0 23.039,-9.84 23.039,-21.988 z"
       style="fill:#ffffff;fill-opacity:1;fill-rule:nonzero;stroke:none"
       id="path260" /><path
       d="m 256.48,371.211 c 0,-12.109 -10.308,-21.949 -23.039,-21.949 -12.742,0 -23.05,9.84 -23.05,21.949 0,12.148 10.308,21.988 23.05,21.988 12.731,0 23.039,-9.84 23.039,-21.988 z"
       style="fill:none;stroke:#0000ff;stroke-width:8.80737;stroke-linecap:round;stroke-linejoin:round;stroke-miterlimit:4;stroke-dasharray:none;stroke-opacity:1"
       id="path262" /><path
       d="m 152.539,136.559 c 0,-12.11 -10.309,-21.95 -23.051,-21.95 -12.726,0 -23.078,9.84 -23.078,21.95 0,12.152 10.352,21.992 23.078,21.992 12.742,0 23.051,-9.84 23.051,-21.992 z"
       style="fill:#ffffff;fill-opacity:1;fill-rule:nonzero;stroke:none"
       id="path264" /><path
       d="m 152.539,136.559 c 0,-12.11 -10.309,-21.95 -23.051,-21.95 -12.726,0 -23.078,9.84 -23.078,21.95 0,12.152 10.352,21.992 23.078,21.992 12.742,0 23.051,-9.84 23.051,-21.992 z"
       style="fill:none;stroke:#000000;stroke-width:8.80737;stroke-linecap:round;stroke-linejoin:round;stroke-miterlimit:4;stroke-dasharray:none;stroke-opacity:1"
       id="path266" /><path
       d="m 577.27,56.3711 c 0,-12.1094 -10.321,-21.9609 -23.051,-21.9609 -12.739,0 -23.047,9.8515 -23.047,21.9609 0,12.1484 10.308,21.9883 23.047,21.9883 12.73,0 23.051,-9.8399 23.051,-21.9883 z"
       style="fill:#ffffff;fill-opacity:1;fill-rule:nonzero;stroke:none"
       id="path268" /><path
       d="m 577.27,56.3711 c 0,-12.1094 -10.321,-21.9609 -23.051,-21.9609 -12.739,0 -23.047,9.8515 -23.047,21.9609 0,12.1484 10.308,21.9883 23.047,21.9883 12.73,0 23.051,-9.8399 23.051,-21.9883 z"
       style="fill:none;stroke:#0000ff;stroke-width:8.80737;stroke-linecap:round;stroke-linejoin:round;stroke-miterlimit:4;stroke-dasharray:none;stroke-opacity:1"
       id="path270" /><path
       d="m 939.609,148.441 c 0,-12.113 -10.308,-21.961 -23.05,-21.961 -12.731,0 -23.039,9.848 -23.039,21.961 0,12.149 10.308,21.989 23.039,21.989 12.742,0 23.05,-9.84 23.05,-21.989 z"
       style="fill:#ffffff;fill-opacity:1;fill-rule:nonzero;stroke:none"
       id="path272" /><path
       d="m 939.609,148.441 c 0,-12.113 -10.308,-21.961 -23.05,-21.961 -12.731,0 -23.039,9.848 -23.039,21.961 0,12.149 10.308,21.989 23.039,21.989 12.742,0 23.05,-9.84 23.05,-21.989 z"
       style="fill:none;stroke:#000000;stroke-width:8.80737;stroke-linecap:round;stroke-linejoin:round;stroke-miterlimit:4;stroke-dasharray:none;stroke-opacity:1"
       id="path274" /><path
       d="m 865.352,623.672 c 0,-12.113 -10.313,-21.953 -23.051,-21.953 -12.731,0 -23.039,9.84 -23.039,21.953 0,12.148 10.308,21.988 23.039,21.988 12.738,0 23.051,-9.84 23.051,-21.988 z"
       style="fill:#ffffff;fill-opacity:1;fill-rule:nonzero;stroke:none"
       id="path276" /><path
       d="m 865.352,623.672 c 0,-12.113 -10.313,-21.953 -23.051,-21.953 -12.731,0 -23.039,9.84 -23.039,21.953 0,12.148 10.308,21.988 23.039,21.988 12.738,0 23.051,-9.84 23.051,-21.988 z"
       style="fill:none;stroke:#0000ff;stroke-width:8.80737;stroke-linecap:round;stroke-linejoin:round;stroke-miterlimit:4;stroke-dasharray:none;stroke-opacity:1"
       id="path278" /><path
       d="m 449.531,935.551 c 0,-12.11 -10.312,-21.961 -23.051,-21.961 -12.73,0 -23.039,9.851 -23.039,21.961 0,12.148 10.309,21.949 23.039,21.949 12.739,0 23.051,-9.801 23.051,-21.949 z"
       style="fill:#ffffff;fill-opacity:1;fill-rule:nonzero;stroke:none"
       id="path280" /><path
       d="m 449.531,935.551 c 0,-12.11 -10.312,-21.961 -23.051,-21.961 -12.73,0 -23.039,9.851 -23.039,21.961 0,12.148 10.309,21.949 23.039,21.949 12.739,0 23.051,-9.801 23.051,-21.949 z"
       style="fill:none;stroke:#0000ff;stroke-width:8.80737;stroke-linecap:round;stroke-linejoin:round;stroke-miterlimit:4;stroke-dasharray:none;stroke-opacity:1"
       id="path282" /><path
       d="m 649.262,571.719 c 0,-12.11 -10.313,-21.949 -23.051,-21.949 -12.731,0 -23.051,9.839 -23.051,21.949 0,12.152 10.32,21.953 23.051,21.953 12.738,0 23.051,-9.801 23.051,-21.953 z"
       style="fill:#ffffff;fill-opacity:1;fill-rule:nonzero;stroke:none"
       id="path284" /><path
       d="m 1900.35,658.828 c 0,-11.129 -9.18,-20.156 -20.51,-20.156 -11.29,0 -20.46,9.027 -20.46,20.156 0,11.133 9.17,20.152 20.46,20.152 11.33,0 20.51,-9.019 20.51,-20.152 z"
       style="fill:#0000ff;fill-opacity:1;fill-rule:evenodd;stroke:none"
       id="path286" /><path
       d="m 1900.35,658.828 c 0,-11.129 -9.18,-20.156 -20.51,-20.156 -11.29,0 -20.46,9.027 -20.46,20.156 0,11.133 9.17,20.152 20.46,20.152 11.33,0 20.51,-9.019 20.51,-20.152 z"
       style="fill:#00ffff;fill-opacity:1;fill-rule:nonzero;stroke:none"
       id="path288" /><path
       d="m 1900.35,658.828 c 0,-11.129 -9.18,-20.156 -20.51,-20.156 -11.29,0 -20.46,9.027 -20.46,20.156 0,11.133 9.17,20.152 20.46,20.152 11.33,0 20.51,-9.019 20.51,-20.152 z"
       style="fill:none;stroke:#00ffff;stroke-width:4.4175;stroke-linecap:butt;stroke-linejoin:miter;stroke-miterlimit:4;stroke-dasharray:none;stroke-opacity:1"
       id="path290" /><path
       d="m 2558.01,264.102 c 0,-11.133 -9.18,-20.153 -20.51,-20.153 -11.33,0 -20.51,9.02 -20.51,20.153 0,11.128 9.18,20.16 20.51,20.16 11.33,0 20.51,-9.032 20.51,-20.16 z"
       style="fill:#000000;fill-opacity:1;fill-rule:evenodd;stroke:none"
       id="path292" /><path
       d="m 2558.01,264.102 c 0,-11.133 -9.18,-20.153 -20.51,-20.153 -11.33,0 -20.51,9.02 -20.51,20.153 0,11.128 9.18,20.16 20.51,20.16 11.33,0 20.51,-9.032 20.51,-20.16 z"
       style="fill:none;stroke:#000000;stroke-width:4.4209;stroke-linecap:butt;stroke-linejoin:miter;stroke-miterlimit:4;stroke-dasharray:none;stroke-opacity:1"
       id="path294" /><path
       d="m 2072.85,295.621 c 0,-11.133 -9.18,-20.152 -20.51,-20.152 -11.32,0 -20.46,9.019 -20.46,20.152 0,11.141 9.14,20.16 20.46,20.16 11.33,0 20.51,-9.019 20.51,-20.16 z"
       style="fill:#000000;fill-opacity:1;fill-rule:evenodd;stroke:none"
       id="path296" /><path
       d="m 2072.85,295.621 c 0,-11.133 -9.18,-20.152 -20.51,-20.152 -11.32,0 -20.46,9.019 -20.46,20.152 0,11.141 9.14,20.16 20.46,20.16 11.33,0 20.51,-9.019 20.51,-20.16 z"
       style="fill:none;stroke:#000000;stroke-width:4.4209;stroke-linecap:butt;stroke-linejoin:miter;stroke-miterlimit:4;stroke-dasharray:none;stroke-opacity:1"
       id="path298" /><path
       d="m 2656.41,896.48 c 0,-11.128 -9.18,-20.152 -20.51,-20.152 -11.29,0 -20.47,9.024 -20.47,20.152 0,11.141 9.18,20.122 20.47,20.122 11.33,0 20.51,-8.981 20.51,-20.122 z"
       style="fill:#000000;fill-opacity:1;fill-rule:evenodd;stroke:none"
       id="path300" /><path
       d="m 2656.41,896.48 c 0,-11.128 -9.18,-20.152 -20.51,-20.152 -11.29,0 -20.47,9.024 -20.47,20.152 0,11.141 9.18,20.122 20.47,20.122 11.33,0 20.51,-8.981 20.51,-20.122 z"
       style="fill:none;stroke:#000000;stroke-width:4.4209;stroke-linecap:butt;stroke-linejoin:miter;stroke-miterlimit:4;stroke-dasharray:none;stroke-opacity:1"
       id="path302" /><path
       d="m 2713.12,659.141 c 0,-11.129 -9.17,-20.161 -20.5,-20.161 -11.33,0 -20.51,9.032 -20.51,20.161 0,11.129 9.18,20.16 20.51,20.16 11.33,0 20.5,-9.031 20.5,-20.16 z"
       style="fill:#0000ff;fill-opacity:1;fill-rule:evenodd;stroke:none"
       id="path304" /><path
       d="m 2713.12,659.141 c 0,-11.129 -9.17,-20.161 -20.5,-20.161 -11.33,0 -20.51,9.032 -20.51,20.161 0,11.129 9.18,20.16 20.51,20.16 11.33,0 20.5,-9.031 20.5,-20.16 z"
       style="fill:#00ffff;fill-opacity:1;fill-rule:nonzero;stroke:none"
       id="path306" /><path
       d="m 2713.12,659.141 c 0,-11.129 -9.17,-20.161 -20.5,-20.161 -11.33,0 -20.51,9.032 -20.51,20.161 0,11.129 9.18,20.16 20.51,20.16 11.33,0 20.5,-9.031 20.5,-20.16 z"
       style="fill:none;stroke:#00ffff;stroke-width:4.4209;stroke-linecap:butt;stroke-linejoin:miter;stroke-miterlimit:4;stroke-dasharray:none;stroke-opacity:1"
       id="path308" /><path
       d="m 2816.02,346.211 c 0,-11.133 -9.18,-20.16 -20.47,-20.16 -11.33,0 -20.51,9.027 -20.51,20.16 0,11.129 9.18,20.16 20.51,20.16 11.29,0 20.47,-9.031 20.47,-20.16 z"
       style="fill:#000000;fill-opacity:1;fill-rule:evenodd;stroke:none"
       id="path310" /><path
       d="m 2816.02,346.211 c 0,-11.133 -9.18,-20.16 -20.47,-20.16 -11.33,0 -20.51,9.027 -20.51,20.16 0,11.129 9.18,20.16 20.51,20.16 11.29,0 20.47,-9.031 20.47,-20.16 z"
       style="fill:none;stroke:#000000;stroke-width:4.4209;stroke-linecap:butt;stroke-linejoin:miter;stroke-miterlimit:4;stroke-dasharray:none;stroke-opacity:1"
       id="path312" /><path
       d="m 2389.69,29.0586 c 0,-11.0898 -9.18,-20.10938 -20.51,-20.10938 -11.33,0 -20.47,9.01958 -20.47,20.10938 0,11.1406 9.14,20.1602 20.47,20.1602 11.33,0 20.51,-9.0196 20.51,-20.1602 z"
       style="fill:#00ffff;fill-opacity:1;fill-rule:evenodd;stroke:none"
       id="path314" /><path
       d="m 2389.69,29.0586 c 0,-11.0898 -9.18,-20.10938 -20.51,-20.10938 -11.33,0 -20.47,9.01958 -20.47,20.10938 0,11.1406 9.14,20.1602 20.47,20.1602 11.33,0 20.51,-9.0196 20.51,-20.1602 z"
       style="fill:none;stroke:#00ffff;stroke-width:1;stroke-linecap:butt;stroke-linejoin:miter;stroke-miterlimit:4;stroke-dasharray:none;stroke-opacity:1"
       id="path316" /><path
       d="m 2389.69,29.0586 c 0,-11.0898 -9.18,-20.10938 -20.51,-20.10938 -11.33,0 -20.47,9.01958 -20.47,20.10938 0,11.1406 9.14,20.1602 20.47,20.1602 11.33,0 20.51,-9.0196 20.51,-20.1602 z"
       style="fill:none;stroke:#00ffff;stroke-width:4.4209;stroke-linecap:butt;stroke-linejoin:miter;stroke-miterlimit:4;stroke-dasharray:none;stroke-opacity:1"
       id="path318" /><path
       d="m 2145.16,310.512 c 0,-11.133 -9.18,-20.16 -20.51,-20.16 -11.29,0 -20.47,9.027 -20.47,20.16 0,11.129 9.18,20.148 20.47,20.148 11.33,0 20.51,-9.019 20.51,-20.148 z"
       style="fill:#0000ff;fill-opacity:1;fill-rule:evenodd;stroke:none"
       id="path320" /><path
       d="m 2145.16,310.512 c 0,-11.133 -9.18,-20.16 -20.51,-20.16 -11.29,0 -20.47,9.027 -20.47,20.16 0,11.129 9.18,20.148 20.47,20.148 11.33,0 20.51,-9.019 20.51,-20.148 z"
       style="fill:#00ffff;fill-opacity:1;fill-rule:nonzero;stroke:none"
       id="path322" /><path
       d="m 2145.16,310.512 c 0,-11.133 -9.18,-20.16 -20.51,-20.16 -11.29,0 -20.47,9.027 -20.47,20.16 0,11.129 9.18,20.148 20.47,20.148 11.33,0 20.51,-9.019 20.51,-20.148 z"
       style="fill:none;stroke:#00ffff;stroke-width:4.4209;stroke-linecap:butt;stroke-linejoin:miter;stroke-miterlimit:4;stroke-dasharray:none;stroke-opacity:1"
       id="path324" /><path
       d="m 2387.58,936.371 c 0,-11.141 -9.18,-20.16 -20.51,-20.16 -11.29,0 -20.47,9.019 -20.47,20.16 0,11.129 9.18,20.149 20.47,20.149 11.33,0 20.51,-9.02 20.51,-20.149 z"
       style="fill:#0000ff;fill-opacity:1;fill-rule:evenodd;stroke:none"
       id="path326" /><path
       d="m 2387.58,936.371 c 0,-11.141 -9.18,-20.16 -20.51,-20.16 -11.29,0 -20.47,9.019 -20.47,20.16 0,11.129 9.18,20.149 20.47,20.149 11.33,0 20.51,-9.02 20.51,-20.149 z"
       style="fill:#00ffff;fill-opacity:1;fill-rule:nonzero;stroke:none"
       id="path328" /><path
       d="m 2387.58,936.371 c 0,-11.141 -9.18,-20.16 -20.51,-20.16 -11.29,0 -20.47,9.019 -20.47,20.16 0,11.129 9.18,20.149 20.47,20.149 11.33,0 20.51,-9.02 20.51,-20.149 z"
       style="fill:none;stroke:#00ffff;stroke-width:4.4209;stroke-linecap:butt;stroke-linejoin:miter;stroke-miterlimit:4;stroke-dasharray:none;stroke-opacity:1"
       id="path330" /><path
       d="m 2219.57,827.148 c 0,-11.097 -9.18,-20.117 -20.51,-20.117 -11.33,0 -20.47,9.02 -20.47,20.117 0,11.133 9.14,20.153 20.47,20.153 11.33,0 20.51,-9.02 20.51,-20.153 z"
       style="fill:#000000;fill-opacity:1;fill-rule:evenodd;stroke:none"
       id="path332" /><path
       d="m 2219.57,827.148 c 0,-11.097 -9.18,-20.117 -20.51,-20.117 -11.33,0 -20.47,9.02 -20.47,20.117 0,11.133 9.14,20.153 20.47,20.153 11.33,0 20.51,-9.02 20.51,-20.153 z"
       style="fill:none;stroke:#000000;stroke-width:4.4209;stroke-linecap:butt;stroke-linejoin:miter;stroke-miterlimit:4;stroke-dasharray:none;stroke-opacity:1"
       id="path334" /><path
       d="m 1166.88,596.52 h 315.78"
       style="fill:none;stroke:#000098;stroke-width:5.82402;stroke-linecap:butt;stroke-linejoin:miter;stroke-miterlimit:4;stroke-dasharray:none;stroke-opacity:1"
       id="path336" /><path
       d="m 1434.53,616.48 54.1,-19.878 -54.1,-19.922 c 8.63,11.761 8.59,27.808 0,39.8 z"
       style="fill:#000098;fill-opacity:1;fill-rule:evenodd;stroke:none"
       id="path338" /><path
       d="m 1434.53,616.48 54.1,-19.878 -54.1,-19.922 c 8.63,11.761 8.59,27.808 0,39.8 z"
       style="fill:none;stroke:#000098;stroke-width:3.09375;stroke-linecap:butt;stroke-linejoin:round;stroke-miterlimit:4;stroke-dasharray:none;stroke-opacity:1"
       id="path340" /><path
       d="M 1622.93,520.59 H 1303.71"
       style="fill:none;stroke:#000098;stroke-width:5.92055;stroke-linecap:butt;stroke-linejoin:miter;stroke-miterlimit:4;stroke-dasharray:none;stroke-opacity:1"
       id="path342" /><path
       d="m 1351.84,500.621 -54.11,19.891 54.11,19.879 c -8.64,-11.719 -8.6,-27.77 0,-39.77 z"
       style="fill:#000098;fill-opacity:1;fill-rule:evenodd;stroke:none"
       id="path344" /><path
       d="m 1351.84,500.621 -54.11,19.891 54.11,19.879 c -8.64,-11.719 -8.6,-27.77 0,-39.77 z"
       style="fill:none;stroke:#000098;stroke-width:3.09375;stroke-linecap:butt;stroke-linejoin:round;stroke-miterlimit:4;stroke-dasharray:none;stroke-opacity:1"
       id="path346" /><path
       d="m 574.449,484.301 c 0,-12.11 -10.308,-21.961 -23.039,-21.961 -12.738,0 -23.051,9.851 -23.051,21.961 0,12.148 10.313,21.988 23.051,21.988 12.731,0 23.039,-9.84 23.039,-21.988 z"
       style="fill:#ffffff;fill-opacity:1;fill-rule:nonzero;stroke:none"
       id="path348" /><path
       d="M 408.551,921.988 266.801,669.609"
       style="fill:#000000;fill-opacity:1;fill-rule:evenodd;stroke:none"
       id="path350" /><path
       d="M 408.551,921.988 266.801,669.609"
       style="fill:none;stroke:#808080;stroke-width:7.5;stroke-linecap:butt;stroke-linejoin:miter;stroke-miterlimit:4;stroke-dasharray:30, 15, 7.5, 15;stroke-dashoffset:0;stroke-opacity:1"
       id="path352" /><path
       d="M 822.07,615.352 557.27,80.1992"
       style="fill:#000000;fill-opacity:1;fill-rule:evenodd;stroke:none"
       id="path354" /><path
       d="M 822.07,615.352 557.27,80.1992"
       style="fill:none;stroke:#808080;stroke-width:7.5;stroke-linecap:butt;stroke-linejoin:miter;stroke-miterlimit:4;stroke-dasharray:30, 15, 7.5, 15;stroke-dashoffset:0;stroke-opacity:1"
       id="path356" /><path
       d="M 436.09,915.512 255.039,378.441"
       style="fill:#000000;fill-opacity:1;fill-rule:evenodd;stroke:none"
       id="path358" /><path
       d="M 436.09,915.512 255.039,378.441"
       style="fill:none;stroke:#808080;stroke-width:7.5;stroke-linecap:butt;stroke-linejoin:miter;stroke-miterlimit:4;stroke-dasharray:30, 15, 7.5, 15;stroke-dashoffset:0;stroke-opacity:1"
       id="path360" /><path
       d="M 436.09,915.512 822.07,615.352"
       style="fill:#000000;fill-opacity:1;fill-rule:evenodd;stroke:none"
       id="path362" /><path
       d="M 436.09,915.512 822.07,615.352"
       style="fill:none;stroke:#808080;stroke-width:7.5;stroke-linecap:butt;stroke-linejoin:miter;stroke-miterlimit:4;stroke-dasharray:30, 15, 7.5, 15;stroke-dashoffset:0;stroke-opacity:1"
       id="path364" /><path
       d="M 2342.34,923.629 1901.52,675.352"
       style="fill:#000000;fill-opacity:1;fill-rule:evenodd;stroke:none"
       id="path366" /><path
       d="M 2342.34,923.629 1901.52,675.352"
       style="fill:none;stroke:#808080;stroke-width:7.5;stroke-linecap:butt;stroke-linejoin:miter;stroke-miterlimit:4;stroke-dasharray:30, 15, 7.5, 15;stroke-dashoffset:0;stroke-opacity:1"
       id="path368" /><path
       d="m 2673.87,673.949 -288.99,244.84"
       style="fill:#000000;fill-opacity:1;fill-rule:evenodd;stroke:none"
       id="path370" /><path
       d="m 2673.87,673.949 -288.99,244.84"
       style="fill:none;stroke:#808080;stroke-width:7.5;stroke-linecap:butt;stroke-linejoin:miter;stroke-miterlimit:4;stroke-dasharray:30, 15, 7.5, 15;stroke-dashoffset:0;stroke-opacity:1"
       id="path372" /><path
       d="M 2381.91,52.5391 2680.47,641.129"
       style="fill:#000000;fill-opacity:1;fill-rule:evenodd;stroke:none"
       id="path374" /><path
       d="M 2381.91,52.5391 2680.47,641.129"
       style="fill:none;stroke:#808080;stroke-width:7.5;stroke-linecap:butt;stroke-linejoin:miter;stroke-miterlimit:4;stroke-dasharray:30, 15, 7.5, 15;stroke-dashoffset:0;stroke-opacity:1"
       id="path376" /><path
       d="m 2129.1,333.16 213.24,590.469"
       style="fill:#000000;fill-opacity:1;fill-rule:evenodd;stroke:none"
       id="path378" /><path
       d="m 2129.1,333.16 213.24,590.469"
       style="fill:none;stroke:#808080;stroke-width:7.5;stroke-linecap:butt;stroke-linejoin:miter;stroke-miterlimit:4;stroke-dasharray:30, 15, 7.5, 15;stroke-dashoffset:0;stroke-opacity:1"
       id="path380" /><path
       d="m 198.949,938.551 c -3.719,-4.922 -3.719,-9.801 -3.719,-12.141 v -15.16 c -2.109,-1.172 -7.46,-3.52 -13.32,-5.16 0.711,2.351 0.711,8.172 0.711,12.39 0,10.969 0,15.622 -4.891,20.071 z M 160,897.699 c 13.051,0 26.129,3.281 36.41,8.391 3.711,2.109 3.942,2.109 3.942,6.332 v 13.75 c 0,7.93 3.988,11.68 9.339,12.148 2.809,0.231 2.809,2.301 2.809,2.77 0,2.582 -2.578,2.582 -5.16,2.582 h -39.641 c -3.051,0 -5.359,0 -5.359,-2.582 0,-1.399 0.711,-2.539 2.781,-2.77 C 177.5,937.379 177.5,928.281 177.5,924.059 V 912.66 c 0,-4.219 0,-6.57 -4.449,-8.172 -4.653,-1.636 -11.41,-1.636 -12.821,-1.636 -6.05,0 -16.558,1.168 -22.652,16.796 -3.238,8.633 -4.648,20.043 -4.648,31.481 0,29.891 10.742,49.031 26.601,49.031 13.52,0 30.078,-14.031 33.59,-25.469 0.707,-2.781 1.18,-4.179 3.289,-4.179 2.539,0 2.539,2.578 2.539,5.109 v 24.769 c 0,2.54 0,4.88 -2.539,4.88 -0.238,0 -2.582,0 -2.82,-2.57 -0.231,-2.54 -1.641,-4.18 -4.641,-4.18 -5.398,0 -10.508,2.1 -12.621,3 -5.59,2.58 -10.508,3.75 -17.269,3.75 -24.719,0 -52.258,-15.622 -52.258,-53.668 0,-36.172 24.719,-53.903 53.199,-53.903 z m 33.59,87.262 c -2.34,3.277 -5.11,6.559 -7.461,8.398 0.941,-0.238 2.109,-0.238 2.82,-0.238 1.602,0 3.473,0.469 4.641,1.18 z m -54.371,-78.16 c -19.809,8.16 -27.309,25.66 -27.309,44.57 0,27.539 14.969,40.617 28.949,45.508 v -0.238 c -3.75,-3.75 -13.05,-16.801 -13.05,-45.512 0,-11.641 1.14,-31.949 11.41,-44.328 z"
       style="fill:#000000;fill-opacity:1;fill-rule:nonzero;stroke:none"
       id="path382" /><path
       d="m 1902.58,946.84 c 3.36,0 9.8,0 14.37,2.73 6.49,4.141 6.88,11.25 6.88,12.071 0.23,1.879 0.23,3.558 2.5,3.558 2.3,0 2.3,-1.879 2.3,-4.179 v -36.059 c 0,-2.07 0,-4.141 -2.3,-4.141 -2.27,0 -2.5,1.879 -2.5,2.891 -0.82,17.309 -14.38,18.129 -21.25,18.359 v -28.121 c 0,-8.988 2.5,-8.988 5.86,-8.988 h 6.25 c 17.89,0 26.87,9.18 27.69,18.359 0.2,1.02 0.2,3.129 2.31,3.129 2.26,0 2.26,-2.109 2.26,-4.379 v -17.3 c 0,-4.18 -0.19,-4.379 -4.37,-4.379 h -67.89 c -2.5,0 -4.61,0 -4.61,2.308 0,2.262 2.5,2.262 3.55,2.262 7.7,0 8.13,1.059 8.13,7.738 v 66.442 c 0,6.25 -0.43,7.699 -7.5,7.699 -1.88,0 -4.18,0 -4.18,2.301 0,2.308 2.11,2.308 4.61,2.308 h 70.39 c 2.5,0 3.75,0 4.18,-1.879 0.19,-0.23 3.94,-22.3 3.94,-22.929 0,-1.442 -1.25,-2.5 -2.26,-2.5 -1.88,0 -2.5,1.879 -2.5,1.879 -0.63,3.55 -2.11,9.179 -11.68,14.8 -7.07,4.141 -13.75,6.02 -21.06,6.02 h -7.26 c -3.36,0 -5.86,0 -5.86,-8.949 z m 39.8,-41.879 v 6.488 c -2.3,-2.5 -4.8,-4.609 -7.5,-6.488 z m -25.82,38.988 c 2.07,-0.859 5,-2.929 7.27,-5.629 v 11.02 c -3.13,-3.52 -7.27,-5.199 -7.27,-5.199 z m -30.23,-31.679 c 0,-1.45 0,-4.809 -1.02,-7.309 h 14.14 c -1.44,3.129 -1.44,7.5 -1.44,8.75 v 64.379 c 0,4.801 0.82,7.5 1.44,8.75 h -14.14 c 1.02,-2.5 1.02,-5.82 1.02,-7.27 z m 49.61,74.57 v -0.199 c 4.14,-2.071 7.69,-5 10.39,-7.301 0,0.43 -1.02,6.48 -1.25,7.5 z"
       style="fill:#000000;fill-opacity:1;fill-rule:nonzero;stroke:none"
       id="path384" /><path
       d="M 440.699,920.039 550.43,82.1094"
       style="fill:none;stroke:#808080;stroke-width:7.5;stroke-linecap:butt;stroke-linejoin:miter;stroke-miterlimit:4;stroke-dasharray:30, 15, 7.5, 15;stroke-dashoffset:0;stroke-opacity:1"
       id="path386" /><path
       d="M 263.98,359.449 538.828,74.8398"
       style="fill:none;stroke:#808080;stroke-width:7.5;stroke-linecap:butt;stroke-linejoin:miter;stroke-miterlimit:4;stroke-dasharray:30, 15, 7.5, 15;stroke-dashoffset:0;stroke-opacity:1"
       id="path388" /><path
       d="M 812.27,610.309 265,375.43"
       style="fill:none;stroke:#808080;stroke-width:7.5;stroke-linecap:butt;stroke-linejoin:miter;stroke-miterlimit:4;stroke-dasharray:30, 15, 7.5, 15;stroke-dashoffset:0;stroke-opacity:1"
       id="path390" /><path
       d="m 208.012,834.059 c -3.633,0 -6.453,3.132 -6.453,6.679 0,3.75 2.929,6.762 6.453,6.762 3.547,0 6.367,-3.121 6.367,-6.641 0,-3.871 -2.93,-6.8 -6.367,-6.8 z m -6.024,-2.258 c 0.203,-0.121 2.703,-1.68 6.024,-1.68 6.047,0 10.937,4.801 10.937,10.738 0,1.95 -0.629,3.832 -1.758,5.7 1.438,0.863 3.008,1.062 3.86,1.171 0.398,-1.789 1.961,-2.3 2.578,-2.3 1.172,0 2.742,0.82 2.742,2.808 0,1.453 -1.25,3.563 -4.922,3.563 -0.711,0 -3.949,-0.121 -6.961,-2.313 -1.168,0.742 -3.437,1.992 -6.476,1.992 -6.25,0 -11.024,-5 -11.024,-10.621 0,-2.929 1.133,-5.121 2.192,-6.371 -0.739,-1.047 -1.371,-2.5 -1.371,-4.488 0,-2.379 0.941,-4.059 1.57,-4.77 -4.891,-3.039 -4.891,-7.5 -4.891,-8.242 0,-5.738 6.883,-9.797 15.391,-9.797 8.562,0 15.551,4.059 15.551,9.797 0,2.391 -1.25,5.742 -4.61,7.5 -0.941,0.512 -3.629,1.992 -9.691,1.992 h -4.57 c -0.508,0 -1.438,0 -1.989,0.079 -0.941,0 -1.332,0 -2.191,0.941 -0.699,0.941 -0.82,2.301 -0.82,2.422 0,0.308 0.203,1.25 0.429,1.879 z m 7.891,-20.629 c -6.641,0 -11.559,2.887 -11.559,5.816 0,1.133 0.551,3.321 2.731,4.571 1.648,1.171 2.187,1.171 7.07,1.171 5.938,0 13.438,0 13.438,-5.742 0,-2.929 -5,-5.816 -11.68,-5.816 z"
       style="fill:#666666;fill-opacity:1;fill-rule:nonzero;stroke:none"
       id="path392" /><path
       d="m 255.59,835.121 c 1.359,0 2.609,0 2.609,2.379 0,7.621 -4.289,14.18 -12.929,14.18 -7.93,0 -14.25,-6.68 -14.25,-14.879 0,-8.051 6.75,-14.813 15.308,-14.813 8.75,0 11.871,6.063 11.871,7.703 0,1.789 -1.871,1.789 -2.301,1.789 -1.25,0 -1.757,-0.23 -2.187,-1.48 -1.441,-3.32 -5.121,-3.949 -6.992,-3.949 -5,0 -9.879,3.328 -11.02,9.07 z m -19.809,3.938 c 0.938,4.921 4.918,8.562 9.489,8.562 3.441,0 7.621,-1.68 8.25,-8.562 z"
       style="fill:#666666;fill-opacity:1;fill-rule:nonzero;stroke:none"
       id="path394" /><path
       d="m 285.98,825.738 c 0,-2.379 0,-3.316 2.731,-3.316 h 4.769 c 1.168,0 2.809,0 2.809,2.066 0,1.992 -1.758,1.992 -2.699,1.992 h -3 v 33.829 c 0,1.992 -0.32,2.742 -2.621,2.742 h -4.879 c -1.059,0 -2.738,0 -2.738,-2.11 0,-1.961 1.796,-1.961 2.738,-1.961 h 2.89 v -10.539 c -2.191,1.989 -4.89,3.039 -7.699,3.039 -7.301,0 -13.633,-6.359 -13.633,-14.8 0,-8.239 5.942,-14.692 13.012,-14.692 3.75,0 6.559,1.762 8.32,3.75 z m 0,14.262 v -4.691 c 0,-3.75 -2.89,-9.258 -8.011,-9.258 -4.809,0 -8.75,4.687 -8.75,10.629 0,6.371 4.691,10.742 9.261,10.742 4.29,0 7.5,-3.75 7.5,-7.422 z"
       style="fill:#666666;fill-opacity:1;fill-rule:nonzero;stroke:none"
       id="path396" /><path
       d="m 312.621,833.91 c 0,1.25 0,1.25 -1.371,1.25 -3.012,-2.89 -7.191,-2.89 -9.059,-2.89 v -1.68 c 1.047,0 4.18,0 6.68,1.25 v -23.641 c 0,-1.558 0,-2.179 -4.57,-2.179 H 302.5 v -1.68 c 0.859,0 6.559,0.191 8.238,0.191 1.453,0 7.313,-0.191 8.321,-0.191 v 1.68 h -1.758 c -4.68,0 -4.68,0.621 -4.68,2.179 z"
       style="fill:#666666;fill-opacity:1;fill-rule:nonzero;stroke:none"
       id="path398" /><path
       d="m 638.789,816.84 c -3.629,0 -6.449,3.121 -6.449,6.68 0,3.75 2.93,6.75 6.449,6.75 3.551,0 6.371,-3.122 6.371,-6.641 0,-3.859 -2.93,-6.789 -6.371,-6.789 z m -6.019,-2.27 c 0.199,-0.121 2.699,-1.679 6.019,-1.679 6.051,0 10.941,4.808 10.941,10.738 0,1.961 -0.628,3.832 -1.761,5.711 1.441,0.859 3.011,1.051 3.871,1.172 0.39,-1.801 1.949,-2.313 2.57,-2.313 1.18,0 2.738,0.821 2.738,2.821 0,1.441 -1.25,3.55 -4.918,3.55 -0.71,0 -3.949,-0.121 -6.96,-2.3 -1.168,0.742 -3.43,1.992 -6.481,1.992 -6.25,0 -11.019,-5 -11.019,-10.633 0,-2.93 1.14,-5.109 2.191,-6.359 -0.742,-1.059 -1.371,-2.5 -1.371,-4.5 0,-2.379 0.941,-4.059 1.57,-4.758 -4.89,-3.051 -4.89,-7.5 -4.89,-8.242 0,-5.75 6.878,-9.809 15.39,-9.809 8.559,0 15.551,4.059 15.551,9.809 0,2.378 -1.25,5.742 -4.609,7.5 -0.942,0.5 -3.633,1.992 -9.692,1.992 h -4.57 c -0.5,0 -1.442,0 -1.988,0.078 -0.942,0 -1.332,0 -2.192,0.93 -0.699,0.941 -0.82,2.308 -0.82,2.429 0,0.313 0.199,1.25 0.43,1.871 z m 7.89,-20.621 c -6.64,0 -11.558,2.891 -11.558,5.821 0,1.128 0.546,3.32 2.738,4.57 1.64,1.172 2.18,1.172 7.07,1.172 5.93,0 13.43,0 13.43,-5.742 0,-2.93 -5,-5.821 -11.68,-5.821 z"
       style="fill:#666666;fill-opacity:1;fill-rule:nonzero;stroke:none"
       id="path400" /><path
       d="m 686.371,817.891 c 1.359,0 2.609,0 2.609,2.379 0,7.621 -4.289,14.179 -12.929,14.179 -7.93,0 -14.25,-6.679 -14.25,-14.879 0,-8.05 6.75,-14.8 15.308,-14.8 8.75,0 11.871,6.05 11.871,7.691 0,1.801 -1.871,1.801 -2.3,1.801 -1.25,0 -1.758,-0.242 -2.192,-1.492 -1.437,-3.321 -5.109,-3.942 -6.988,-3.942 -5,0 -9.879,3.32 -11.02,9.063 z m -19.812,3.949 c 0.941,4.922 4.921,8.551 9.492,8.551 3.437,0 7.621,-1.68 8.25,-8.551 z"
       style="fill:#666666;fill-opacity:1;fill-rule:nonzero;stroke:none"
       id="path402" /><path
       d="m 716.762,808.52 c 0,-2.391 0,-3.321 2.726,-3.321 h 4.774 c 1.168,0 2.808,0 2.808,2.071 0,1.992 -1.761,1.992 -2.691,1.992 h -3.008 v 33.828 c 0,1.988 -0.32,2.73 -2.621,2.73 h -4.879 c -1.062,0 -2.742,0 -2.742,-2.109 0,-1.949 1.801,-1.949 2.742,-1.949 h 2.891 v -10.551 c -2.192,1.988 -4.883,3.051 -7.703,3.051 -7.297,0 -13.629,-6.371 -13.629,-14.813 0,-8.238 5.941,-14.679 13.011,-14.679 3.75,0 6.559,1.75 8.321,3.75 z m 0,14.25 v -4.68 c 0,-3.75 -2.891,-9.262 -8.012,-9.262 -4.801,0 -8.75,4.692 -8.75,10.621 0,6.371 4.691,10.75 9.262,10.75 4.289,0 7.5,-3.75 7.5,-7.429 z"
       style="fill:#666666;fill-opacity:1;fill-rule:nonzero;stroke:none"
       id="path404" /><path
       d="m 751.328,795.551 h -1.558 c -0.122,-1.063 -0.629,-3.75 -1.25,-4.18 -0.321,-0.32 -3.872,-0.32 -4.61,-0.32 h -8.519 c 4.879,4.258 6.558,5.629 9.257,7.82 3.442,2.688 6.68,5.617 6.68,10 0,5.617 -4.918,9.059 -10.859,9.059 -5.699,0 -9.688,-4.059 -9.688,-8.321 0,-2.308 1.989,-2.621 2.5,-2.621 1.059,0 2.418,0.821 2.418,2.5 0,0.821 -0.308,2.5 -2.73,2.5 1.48,3.242 4.609,4.262 6.801,4.262 4.679,0 7.07,-3.629 7.07,-7.379 0,-4.07 -2.93,-7.191 -4.379,-8.871 l -11.133,-11.129 c -0.547,-0.43 -0.547,-0.512 -0.547,-1.762 h 19.18 z"
       style="fill:#666666;fill-opacity:1;fill-rule:nonzero;stroke:none"
       id="path406" /><path
       d="m 361.129,379.84 c -3.629,0 -6.438,3.129 -6.438,6.68 0,3.75 2.887,6.761 6.438,6.761 3.562,0 6.371,-3.121 6.371,-6.679 0,-3.832 -2.93,-6.762 -6.371,-6.762 z m -6.051,-2.301 c 0.231,-0.078 2.731,-1.641 6.051,-1.641 6.062,0 10.941,4.762 10.941,10.704 0,1.988 -0.621,3.867 -1.761,5.738 1.453,0.82 3.011,1.058 3.832,1.14 0.429,-1.761 1.988,-2.269 2.621,-2.269 1.129,0 2.687,0.82 2.687,2.809 0,1.449 -1.25,3.519 -4.879,3.519 -0.742,0 -3.949,-0.078 -6.992,-2.269 -1.129,0.71 -3.437,1.96 -6.449,1.96 -6.25,0 -11.051,-5 -11.051,-10.628 0,-2.891 1.172,-5.082 2.192,-6.332 -0.711,-1.051 -1.329,-2.5 -1.329,-4.489 0,-2.383 0.938,-4.062 1.559,-4.801 -4.922,-3.011 -4.922,-7.5 -4.922,-8.21 0,-5.739 6.871,-9.801 15.434,-9.801 8.547,0 15.508,4.062 15.508,9.801 0,2.39 -1.25,5.71 -4.571,7.5 -0.937,0.511 -3.64,1.96 -9.687,1.96 h -4.571 c -0.55,0 -1.492,0 -1.992,0.11 -0.937,0 -1.371,0 -2.187,0.941 -0.742,0.938 -0.821,2.309 -0.821,2.379 0,0.32 0.188,1.25 0.387,1.879 z m 7.934,-20.629 c -6.684,0 -11.563,2.93 -11.563,5.86 0,1.14 0.5,3.32 2.692,4.57 1.679,1.14 2.187,1.14 7.109,1.14 5.941,0 13.441,0 13.441,-5.71 0,-2.93 -5,-5.86 -11.679,-5.86 z"
       style="fill:#666666;fill-opacity:1;fill-rule:nonzero;stroke:none"
       id="path408" /><path
       d="m 408.711,380.898 c 1.367,0 2.617,0 2.617,2.383 0,7.617 -4.297,14.18 -12.93,14.18 -7.929,0 -14.257,-6.68 -14.257,-14.922 0,-8.008 6.757,-14.769 15.308,-14.769 8.75,0 11.879,6.019 11.879,7.699 0,1.761 -1.879,1.761 -2.308,1.761 -1.25,0 -1.75,-0.199 -2.18,-1.449 -1.449,-3.32 -5.121,-3.941 -7,-3.941 -5,0 -9.879,3.32 -11.012,9.058 z m -19.801,3.942 c 0.93,4.89 4.918,8.558 9.488,8.558 3.442,0 7.622,-1.679 8.243,-8.558 z"
       style="fill:#666666;fill-opacity:1;fill-rule:nonzero;stroke:none"
       id="path410" /><path
       d="m 439.102,371.52 c 0,-2.418 0,-3.36 2.699,-3.36 h 4.801 c 1.128,0 2.808,0 2.808,2.11 0,1.96 -1.75,1.96 -2.691,1.96 h -3.047 v 33.86 c 0,2 -0.313,2.699 -2.582,2.699 h -4.918 c -1.012,0 -2.692,0 -2.692,-2.07 0,-1.989 1.75,-1.989 2.692,-1.989 h 2.93 v -10.511 c -2.192,1.992 -4.883,3.011 -7.692,3.011 -7.308,0 -13.68,-6.332 -13.68,-14.769 0,-8.242 5.942,-14.691 13.051,-14.691 3.75,0 6.559,1.761 8.321,3.75 z m 0,14.261 v -4.691 c 0,-3.75 -2.93,-9.25 -8.012,-9.25 -4.801,0 -8.75,4.68 -8.75,10.621 0,6.328 4.691,10.699 9.262,10.699 4.257,0 7.5,-3.75 7.5,-7.379 z"
       style="fill:#666666;fill-opacity:1;fill-rule:nonzero;stroke:none"
       id="path412" /><path
       d="m 457.422,376.02 c 2.379,-0.629 3.75,-0.629 4.457,-0.629 6.172,0 9.801,4.179 9.801,4.918 0,0.511 -0.309,0.632 -0.508,0.632 -0.121,0 -0.231,0 -0.434,-0.121 -1.129,-0.429 -3.547,-1.371 -6.988,-1.371 -1.328,0 -3.75,0.121 -6.762,1.25 -0.508,0.242 -0.617,0.242 -0.617,0.242 -0.633,0 -0.633,-0.55 -0.633,-1.25 V 366.02 c 0,-0.821 0,-1.329 0.742,-1.329 0.399,0 0.508,0 0.942,0.618 1.957,2.5 4.879,2.89 6.449,2.89 2.809,0 4.059,-2.179 4.25,-2.578 0.859,-1.562 1.18,-3.351 1.18,-6.051 0,-1.371 0,-4.058 -1.492,-6.129 -1.129,-1.679 -3.118,-2.82 -5.387,-2.82 -3.043,0 -6.172,1.649 -7.301,4.77 1.758,-0.082 2.688,1.058 2.688,2.308 0,1.992 -1.758,2.301 -2.379,2.301 0,0 -2.309,0 -2.309,-2.5 0,-4.18 3.867,-8.359 9.379,-8.359 5.941,0 11.172,4.379 11.172,10.308 0,5.242 -3.981,10 -9.692,10 -2.101,0 -4.492,-0.39 -6.558,-2.179 z"
       style="fill:#666666;fill-opacity:1;fill-rule:nonzero;stroke:none"
       id="path414" /><path
       d="m 745.551,356.289 c -3.672,0 -6.492,3.121 -6.492,6.641 0,3.75 2.929,6.8 6.492,6.8 3.508,0 6.328,-3.128 6.328,-6.679 0,-3.871 -2.899,-6.762 -6.328,-6.762 z m -6.063,-2.309 c 0.203,-0.109 2.703,-1.679 6.063,-1.679 6.008,0 10.929,4.808 10.929,10.75 0,1.988 -0.621,3.859 -1.789,5.738 1.481,0.82 3.039,1.012 3.86,1.133 0.429,-1.762 2,-2.301 2.621,-2.301 1.129,0 2.699,0.859 2.699,2.809 0,1.48 -1.25,3.55 -4.891,3.55 -0.742,0 -3.98,-0.109 -6.992,-2.3 -1.129,0.742 -3.437,1.992 -6.437,1.992 -6.25,0 -11.063,-5 -11.063,-10.621 0,-2.93 1.133,-5.121 2.192,-6.371 -0.739,-1.02 -1.371,-2.5 -1.371,-4.45 0,-2.429 0.941,-4.07 1.57,-4.808 -4.891,-3.012 -4.891,-7.5 -4.891,-8.242 0,-5.7 6.883,-9.77 15.434,-9.77 8.519,0 15.508,4.07 15.508,9.77 0,2.422 -1.25,5.742 -4.571,7.5 -0.937,0.55 -3.668,1.992 -9.687,1.992 h -4.613 c -0.508,0 -1.438,0 -1.95,0.117 -0.937,0 -1.371,0 -2.187,0.941 -0.742,0.93 -0.863,2.258 -0.863,2.379 0,0.313 0.242,1.25 0.429,1.871 z m 7.934,-20.621 c -6.684,0 -11.563,2.93 -11.563,5.821 0,1.172 0.512,3.359 2.692,4.609 1.679,1.133 2.187,1.133 7.07,1.133 5.938,0 13.438,0 13.438,-5.742 0,-2.891 -5,-5.821 -11.637,-5.821 z"
       style="fill:#666666;fill-opacity:1;fill-rule:nonzero;stroke:none"
       id="path416" /><path
       d="m 793.121,357.301 c 1.328,0 2.578,0 2.578,2.429 0,7.571 -4.25,14.141 -12.89,14.141 -7.93,0 -14.289,-6.641 -14.289,-14.891 0,-8 6.789,-14.8 15.308,-14.8 8.75,0 11.871,6.05 11.871,7.73 0,1.762 -1.871,1.762 -2.258,1.762 -1.25,0 -1.8,-0.192 -2.191,-1.442 -1.48,-3.359 -5.121,-3.992 -6.988,-3.992 -5,0 -9.883,3.364 -11.063,9.063 z m -19.801,3.988 c 0.942,4.883 4.879,8.512 9.489,8.512 3.441,0 7.582,-1.641 8.211,-8.512 z"
       style="fill:#666666;fill-opacity:1;fill-rule:nonzero;stroke:none"
       id="path418" /><path
       d="m 823.52,347.93 c 0,-2.379 0,-3.321 2.691,-3.321 h 4.809 c 1.128,0 2.808,0 2.808,2.071 0,1.992 -1.797,1.992 -2.738,1.992 h -3 v 33.867 c 0,1.949 -0.32,2.691 -2.621,2.691 h -4.879 c -1.059,0 -2.699,0 -2.699,-2.07 0,-1.988 1.757,-1.988 2.699,-1.988 h 2.93 V 370.66 c -2.192,1.961 -4.93,3.012 -7.739,3.012 -7.261,0 -13.633,-6.371 -13.633,-14.801 0,-8.211 5.942,-14.691 13.012,-14.691 3.75,0 6.559,1.8 8.36,3.75 z m 0,14.3 v -4.691 c 0,-3.75 -2.93,-9.301 -8.051,-9.301 -4.77,0 -8.75,4.692 -8.75,10.633 0,6.359 4.691,10.738 9.301,10.738 4.25,0 7.5,-3.75 7.5,-7.379 z"
       style="fill:#666666;fill-opacity:1;fill-rule:nonzero;stroke:none"
       id="path420" /><path
       d="m 847.34,342.07 c 3.64,0 6.25,-2.5 6.25,-7.5 0,-5.742 -3.43,-7.5 -6.051,-7.5 -1.879,0 -6.059,0.508 -7.93,3.321 2.192,0 2.731,1.558 2.731,2.621 0,1.437 -1.168,2.5 -2.61,2.5 -1.25,0 -2.621,-0.864 -2.621,-2.742 0,-4.372 4.801,-7.18 10.43,-7.18 6.441,0 10.941,4.371 10.941,8.98 0,3.629 -2.929,7.27 -8.011,8.321 4.761,1.757 6.562,5.199 6.562,8.129 0,3.628 -4.179,6.359 -9.371,6.359 -5.121,0 -9.07,-2.5 -9.07,-6.25 0,-1.559 1.019,-2.418 2.39,-2.418 1.442,0 2.379,1.059 2.379,2.309 0,1.359 -0.937,2.378 -2.379,2.5 1.68,1.992 4.801,2.5 6.559,2.5 2.07,0 5,-1.059 5,-5 0,-2 -0.629,-4.18 -1.879,-5.508 -1.441,-1.801 -2.808,-1.883 -5.109,-2.114 -1.141,-0.078 -1.25,-0.078 -1.449,-0.078 -0.122,0 -0.512,-0.121 -0.512,-0.621 0,-0.629 0.39,-0.629 1.25,-0.629 z"
       style="fill:#666666;fill-opacity:1;fill-rule:nonzero;stroke:none"
       id="path422" /><path
       d="m 267.66,208.121 c -3.64,0 -6.449,3.129 -6.449,6.68 0,3.75 2.93,6.758 6.449,6.758 3.551,0 6.36,-3.118 6.36,-6.68 0,-3.828 -2.93,-6.758 -6.36,-6.758 z m -6.019,-2.301 c 0.199,-0.082 2.699,-1.64 6.019,-1.64 6.051,0 10.93,4.769 10.93,10.699 0,2 -0.621,3.871 -1.75,5.742 1.441,0.828 3,1.059 3.859,1.141 0.391,-1.762 1.961,-2.274 2.582,-2.274 1.168,0 2.739,0.821 2.739,2.813 0,1.449 -1.25,3.519 -4.93,3.519 -0.699,0 -3.942,-0.082 -6.949,-2.269 -1.172,0.711 -3.442,1.961 -6.481,1.961 -6.25,0 -11.019,-5 -11.019,-10.633 0,-2.891 1.129,-5.078 2.187,-6.328 -0.738,-1.051 -1.367,-2.5 -1.367,-4.492 0,-2.379 0.937,-4.059 1.559,-4.797 -4.879,-3.012 -4.879,-7.5 -4.879,-8.211 0,-5.742 6.879,-9.801 15.39,-9.801 8.559,0 15.547,4.059 15.547,9.801 0,2.39 -1.25,5.711 -4.609,7.5 -0.938,0.508 -3.629,1.961 -9.688,1.961 h -4.57 c -0.512,0 -1.441,0 -1.992,0.109 -0.938,0 -1.328,0 -2.188,0.938 -0.703,0.941 -0.82,2.312 -0.82,2.39 0,0.313 0.199,1.25 0.43,1.871 z m 7.89,-20.621 c -6.64,0 -11.562,2.922 -11.562,5.852 0,1.14 0.551,3.328 2.73,4.57 1.641,1.141 2.192,1.141 7.071,1.141 5.941,0 13.441,0 13.441,-5.711 0,-2.93 -5,-5.852 -11.68,-5.852 z"
       style="fill:#666666;fill-opacity:1;fill-rule:nonzero;stroke:none"
       id="path424" /><path
       d="m 315.23,209.18 c 1.372,0 2.622,0 2.622,2.379 0,7.621 -4.262,14.179 -12.93,14.179 -7.891,0 -14.262,-6.679 -14.262,-14.918 0,-8.011 6.762,-14.769 15.32,-14.769 8.75,0 11.872,6.019 11.872,7.699 0,1.762 -1.872,1.762 -2.301,1.762 -1.25,0 -1.762,-0.203 -2.192,-1.453 -1.449,-3.321 -5.078,-3.938 -6.949,-3.938 -5,0 -9.93,3.32 -11.058,9.059 z m -19.761,3.941 c 0.941,4.891 4.883,8.559 9.453,8.559 3.437,0 7.617,-1.68 8.238,-8.559 z"
       style="fill:#666666;fill-opacity:1;fill-rule:nonzero;stroke:none"
       id="path426" /><path
       d="m 345.621,199.801 c 0,-2.422 0,-3.352 2.738,-3.352 h 4.762 c 1.18,0 2.82,0 2.82,2.102 0,1.961 -1.761,1.961 -2.703,1.961 h -3.008 v 33.867 c 0,1.992 -0.308,2.691 -2.609,2.691 h -4.891 c -1.05,0 -2.73,0 -2.73,-2.07 0,-1.988 1.801,-1.988 2.73,-1.988 h 2.891 V 222.5 c -2.18,1.988 -4.883,3.012 -7.691,3.012 -7.309,0 -13.629,-6.332 -13.629,-14.774 0,-8.238 5.929,-14.687 13,-14.687 3.75,0 6.57,1.758 8.32,3.75 z m 0,14.258 v -4.68 c 0,-3.758 -2.891,-9.258 -8,-9.258 -4.812,0 -8.75,4.68 -8.75,10.617 0,6.332 4.68,10.711 9.25,10.711 4.301,0 7.5,-3.75 7.5,-7.39 z"
       style="fill:#666666;fill-opacity:1;fill-rule:nonzero;stroke:none"
       id="path428" /><path
       d="m 381.328,185.98 v 1.68 h -5.199 v 20.738 c 0,0.942 0,1.332 -0.93,1.332 -0.629,0 -0.82,0 -1.25,-0.71 L 358.52,187.66 v -1.68 h 13.75 v -3.75 c 0,-1.64 0,-2.191 -3.829,-2.191 h -1.25 v -1.641 c 2.379,0.082 5.309,0.192 6.95,0.192 1.8,0 4.687,-0.11 7.109,-0.192 v 1.641 H 380 c -3.871,0 -3.871,0.551 -3.871,2.191 v 3.75 z m -8.75,18.668 V 187.66 h -12.269 z"
       style="fill:#666666;fill-opacity:1;fill-rule:nonzero;stroke:none"
       id="path430" /><path
       d="m 499.18,655.66 c -3.629,0 -6.45,3.129 -6.45,6.641 0,3.75 2.93,6.801 6.45,6.801 3.55,0 6.371,-3.122 6.371,-6.68 0,-3.871 -2.93,-6.762 -6.371,-6.762 z m -6.02,-2.301 c 0.199,-0.121 2.699,-1.679 6.02,-1.679 6.05,0 10.941,4.8 10.941,10.742 0,1.988 -0.633,3.867 -1.762,5.738 1.442,0.82 3.012,1.02 3.871,1.141 0.391,-1.762 1.95,-2.313 2.571,-2.313 1.179,0 2.738,0.864 2.738,2.813 0,1.488 -1.25,3.558 -4.918,3.558 -0.711,0 -3.949,-0.121 -6.961,-2.308 -1.172,0.75 -3.43,2 -6.48,2 -6.25,0 -11.02,-5 -11.02,-10.629 0,-2.934 1.141,-5.121 2.192,-6.371 -0.743,-1.012 -1.372,-2.5 -1.372,-4.449 0,-2.422 0.942,-4.063 1.571,-4.801 -4.891,-3.012 -4.891,-7.5 -4.891,-8.25 0,-5.699 6.879,-9.762 15.391,-9.762 8.558,0 15.551,4.063 15.551,9.762 0,2.429 -1.25,5.75 -4.614,7.5 -0.937,0.551 -3.629,2 -9.687,2 h -4.571 c -0.5,0 -1.441,0 -1.992,0.109 -0.937,0 -1.328,0 -2.187,0.942 -0.699,0.937 -0.821,2.269 -0.821,2.378 0,0.321 0.2,1.25 0.43,1.879 z m 7.891,-20.629 c -6.641,0 -11.563,2.93 -11.563,5.821 0,1.179 0.551,3.359 2.742,4.609 1.641,1.141 2.18,1.141 7.071,1.141 5.929,0 13.429,0 13.429,-5.75 0,-2.891 -5,-5.821 -11.679,-5.821 z"
       style="fill:#666666;fill-opacity:1;fill-rule:nonzero;stroke:none"
       id="path432" /><path
       d="m 546.762,656.68 c 1.359,0 2.617,0 2.617,2.422 0,7.578 -4.258,14.136 -12.93,14.136 -7.898,0 -14.258,-6.636 -14.258,-14.879 0,-8.007 6.758,-14.808 15.309,-14.808 8.75,0 11.879,6.058 11.879,7.738 0,1.762 -1.879,1.762 -2.309,1.762 -1.25,0 -1.761,-0.199 -2.191,-1.449 -1.438,-3.364 -5.078,-3.981 -6.949,-3.981 -5,0 -9.918,3.359 -11.051,9.059 z m -19.774,3.98 c 0.942,4.891 4.891,8.52 9.461,8.52 3.43,0 7.61,-1.641 8.242,-8.52 z"
       style="fill:#666666;fill-opacity:1;fill-rule:nonzero;stroke:none"
       id="path434" /><path
       d="m 577.148,647.301 c 0,-2.379 0,-3.321 2.731,-3.321 h 4.769 c 1.172,0 2.813,0 2.813,2.071 0,2 -1.762,2 -2.691,2 h -3.008 v 33.859 c 0,1.961 -0.313,2.699 -2.621,2.699 h -4.879 c -1.063,0 -2.742,0 -2.742,-2.07 0,-1.988 1.8,-1.988 2.742,-1.988 h 2.886 v -10.512 c -2.187,1.949 -4.878,3.012 -7.699,3.012 -7.301,0 -13.629,-6.371 -13.629,-14.813 0,-8.199 5.942,-14.687 13.008,-14.687 3.75,0 6.563,1.801 8.32,3.75 z m 0,14.301 v -4.692 c 0,-3.75 -2.886,-9.289 -8.007,-9.289 -4.801,0 -8.75,4.68 -8.75,10.617 0,6.371 4.687,10.742 9.257,10.742 4.301,0 7.5,-3.75 7.5,-7.378 z"
       style="fill:#666666;fill-opacity:1;fill-rule:nonzero;stroke:none"
       id="path436" /><path
       d="m 595.27,641.129 c 0,3.75 0.32,7.191 2.07,10.082 1.57,2.5 4.07,4.18 7.07,4.18 1.371,0 3.25,-0.313 4.18,-1.563 -1.129,-0.117 -2.18,-0.937 -2.18,-2.308 0,-1.129 0.82,-2.18 2.18,-2.18 1.449,0 2.308,0.93 2.308,2.301 0,2.699 -1.988,5.121 -6.558,5.121 -6.68,0 -13.559,-6.172 -13.559,-16.172 0,-11.961 5.629,-15.629 10.821,-15.629 5.628,0 10.546,4.379 10.546,10.43 0,5.937 -4.687,10.308 -10.117,10.308 -3.75,0 -5.742,-2.5 -6.761,-4.57 z m 6.332,-14.68 c -2.383,0 -4.141,1.321 -5.192,3.43 -0.629,1.332 -1.058,3.75 -1.058,6.449 0,4.57 2.738,8.012 6.488,8.012 2.07,0 3.512,-0.82 4.68,-2.5 1.14,-1.762 1.14,-3.75 1.14,-6.449 0,-2.621 0,-4.571 -1.25,-6.442 -1.058,-1.57 -2.621,-2.5 -4.808,-2.5 z"
       style="fill:#666666;fill-opacity:1;fill-rule:nonzero;stroke:none"
       id="path438" /><path
       d="m 177.379,525.59 c -3.629,0 -6.438,3.121 -6.438,6.64 0,3.75 2.887,6.79 6.438,6.79 3.562,0 6.371,-3.122 6.371,-6.68 0,-3.86 -2.93,-6.75 -6.371,-6.75 z m -6.051,-2.309 c 0.231,-0.121 2.731,-1.679 6.051,-1.679 6.062,0 10.941,4.808 10.941,10.738 0,2 -0.621,3.871 -1.761,5.75 1.453,0.82 3.011,1.012 3.832,1.129 0.429,-1.758 1.988,-2.309 2.621,-2.309 1.129,0 2.687,0.86 2.687,2.82 0,1.481 -1.25,3.551 -4.879,3.551 -0.742,0 -3.941,-0.121 -6.992,-2.301 -1.129,0.739 -3.437,1.989 -6.449,1.989 -6.25,0 -11.051,-5 -11.051,-10.629 0,-2.93 1.172,-5.11 2.192,-6.36 -0.711,-1.019 -1.329,-2.5 -1.329,-4.46 0,-2.418 0.93,-4.059 1.559,-4.801 -4.922,-3.008 -4.922,-7.5 -4.922,-8.239 0,-5.71 6.871,-9.769 15.434,-9.769 8.547,0 15.508,4.059 15.508,9.769 0,2.418 -1.25,5.739 -4.571,7.5 -0.937,0.54 -3.64,1.989 -9.687,1.989 h -4.571 c -0.55,0 -1.492,0 -1.992,0.121 -0.937,0 -1.371,0 -2.187,0.93 -0.742,0.941 -0.821,2.269 -0.821,2.39 0,0.309 0.188,1.25 0.387,1.871 z m 7.934,-20.621 c -6.684,0 -11.563,2.93 -11.563,5.82 0,1.168 0.5,3.36 2.692,4.61 1.679,1.129 2.187,1.129 7.109,1.129 5.941,0 13.441,0 13.441,-5.739 0,-2.89 -5,-5.82 -11.679,-5.82 z"
       style="fill:#666666;fill-opacity:1;fill-rule:nonzero;stroke:none"
       id="path440" /><path
       d="m 224.961,526.602 c 1.367,0 2.617,0 2.617,2.418 0,7.582 -4.297,14.14 -12.93,14.14 -7.929,0 -14.257,-6.64 -14.257,-14.879 0,-8.011 6.757,-14.801 15.308,-14.801 8.75,0 11.879,6.051 11.879,7.731 0,1.758 -1.879,1.758 -2.308,1.758 -1.25,0 -1.75,-0.199 -2.18,-1.449 -1.449,-3.36 -5.121,-3.981 -7,-3.981 -5,0 -9.879,3.359 -11.012,9.063 z m -19.801,3.988 c 0.93,4.879 4.918,8.512 9.488,8.512 3.442,0 7.622,-1.641 8.243,-8.512 z"
       style="fill:#666666;fill-opacity:1;fill-rule:nonzero;stroke:none"
       id="path442" /><path
       d="m 255.352,517.23 c 0,-2.39 0,-3.32 2.699,-3.32 h 4.801 c 1.128,0 2.808,0 2.808,2.07 0,1.989 -1.75,1.989 -2.691,1.989 h -3.047 v 33.871 c 0,1.949 -0.313,2.691 -2.582,2.691 h -4.918 c -1.012,0 -2.692,0 -2.692,-2.07 0,-1.992 1.75,-1.992 2.692,-1.992 h 2.93 v -10.508 c -2.192,1.949 -4.883,3.008 -7.692,3.008 -7.308,0 -13.68,-6.367 -13.68,-14.809 0,-8.199 5.942,-14.68 13.051,-14.68 3.75,0 6.559,1.79 8.321,3.75 z m 0,14.29 v -4.68 c 0,-3.75 -2.93,-9.301 -8.012,-9.301 -4.801,0 -8.75,4.691 -8.75,10.621 0,6.371 4.691,10.75 9.262,10.75 4.257,0 7.5,-3.75 7.5,-7.39 z"
       style="fill:#666666;fill-opacity:1;fill-rule:nonzero;stroke:none"
       id="path444" /><path
       d="m 291.371,523.828 c 0.43,0.621 0.43,0.742 0.43,1.871 h -12.192 c -1.879,0 -2.418,0.121 -4.058,0.242 -2.43,0.188 -2.5,0.508 -2.621,1.25 h -1.559 l -1.68,-9.921 h 1.559 c 0.121,0.742 0.629,3.75 1.371,4.289 0.309,0.203 4.18,0.203 4.801,0.203 H 287.5 c -1.449,-1.883 -3.828,-4.813 -4.77,-6.141 -6.05,-7.922 -6.679,-15.312 -6.679,-18.043 0,-0.508 0,-2.699 2.187,-2.699 2.313,0 2.313,2.07 2.313,2.699 v 1.871 c 0,8.992 1.871,13.129 3.828,15.629 z"
       style="fill:#666666;fill-opacity:1;fill-rule:nonzero;stroke:none"
       id="path446" /><path
       d="m 2057.11,869.102 c 0,0 0,0.738 -0.82,0.738 -1.06,0 -7.31,-0.621 -8.44,-0.738 -0.51,-0.122 -0.94,-0.43 -0.94,-1.25 0,-0.821 0.63,-0.821 1.57,-0.821 3.24,0 3.32,-0.429 3.32,-1.172 l -0.2,-1.328 -3.94,-15.742 c -1.25,2.5 -3.13,4.262 -6.18,4.262 -7.69,0 -15.93,-9.77 -15.93,-19.461 0,-6.25 3.67,-10.621 8.75,-10.621 1.36,0 4.68,0.312 8.67,5 0.51,-2.809 2.89,-5 6.01,-5 2.43,0 3.87,1.562 5,3.633 1.06,2.378 2,6.449 2,6.558 0,0.75 -0.63,0.75 -0.82,0.75 -0.63,0 -0.75,-0.32 -0.94,-1.25 -1.17,-4.301 -2.31,-8.25 -5,-8.25 -1.88,0 -1.99,1.762 -1.99,3.012 0,1.68 0.11,2.109 0.31,3.238 z m -13.75,-37.5 c -0.39,-1.25 -0.39,-1.372 -1.33,-2.5 -2.93,-3.633 -5.62,-4.692 -7.5,-4.692 -3.36,0 -4.3,3.641 -4.3,6.25 0,3.32 2.11,11.449 3.68,14.57 2.07,3.872 5,6.372 7.69,6.372 4.26,0 5.2,-5.43 5.2,-5.821 0,-0.429 -0.08,-0.859 -0.2,-1.172 z"
       style="fill:#666666;fill-opacity:1;fill-rule:nonzero;stroke:none"
       id="path448" /><path
       d="m 2069.49,829.34 c 1.17,0 3.36,0 5,-1.02 2.19,-1.371 2.42,-3.871 2.42,-4.179 0,-0.621 0,-1.25 0.82,-1.25 0.75,0 0.75,0.629 0.75,1.449 v 12.609 c 0,0.75 0,1.449 -0.75,1.449 -0.82,0 -0.82,-0.628 -0.82,-1.019 -0.31,-6.051 -5,-6.359 -7.42,-6.359 v 9.8 c 0,3.129 0.86,3.129 1.99,3.129 h 2.19 c 6.25,0 9.38,-3.25 9.69,-6.488 0,-0.313 0.12,-1.012 0.82,-1.012 0.74,0 0.74,0.699 0.74,1.563 v 6.008 c 0,1.492 0,1.57 -1.44,1.57 h -23.87 c -0.82,0 -1.56,0 -1.56,-0.942 0,-0.699 0.93,-0.699 1.25,-0.699 2.69,0 2.81,-0.429 2.81,-2.738 v -23.199 c 0,-2.192 -0.12,-2.621 -2.5,-2.621 -0.74,0 -1.56,0 -1.56,-0.821 0,-0.859 0.74,-0.859 1.56,-0.859 h 24.69 c 0.82,0 1.36,0 1.44,0.629 0.12,0.109 1.37,7.808 1.37,8.039 0,0.512 -0.43,0.82 -0.82,0.82 -0.63,0 -0.86,-0.5 -0.86,-0.621 -0.2,-1.129 -0.7,-3.129 -4.06,-5.117 -2.5,-1.441 -4.77,-2.07 -7.39,-2.07 h -2.5 c -1.13,0 -1.99,0 -1.99,3.007 z m 13.87,14.609 v -2.308 c -0.82,0.937 -1.68,1.679 -2.7,2.308 z m -9.06,-13.679 c 0.74,0.32 1.75,1.058 2.61,2 v -3.872 c -1.17,1.25 -2.61,1.872 -2.61,1.872 z m -10.51,11.058 c 0,0.621 0,1.762 -0.31,2.621 h 4.88 c -0.51,-1.058 -0.51,-2.621 -0.51,-3.051 v -22.5 c 0,-1.636 0.31,-2.578 0.51,-3.007 h -4.88 c 0.31,0.82 0.31,1.988 0.31,2.5 z m 17.26,-25.937 c 1.49,0.738 2.74,1.757 3.68,2.621 0,-0.242 -0.32,-2.313 -0.43,-2.621 z"
       style="fill:#666666;fill-opacity:1;fill-rule:nonzero;stroke:none"
       id="path450" /><path
       d="m 2101.64,828.238 c 0,0.942 -0.08,0.942 -1.25,0.942 -2.27,-2.11 -6.01,-2.11 -6.64,-2.11 h -0.55 v -1.449 h 0.55 c 0.7,0 2.89,0.117 4.88,0.938 v -16.68 c 0,-0.93 0,-1.328 -3.55,-1.328 h -1.64 v -1.481 c 1.76,0.121 4.76,0.121 6.64,0.121 1.99,0 4.92,0 6.8,-0.121 v 1.481 h -1.68 c -3.56,0 -3.56,0.398 -3.56,1.328 z"
       style="fill:#666666;fill-opacity:1;fill-rule:nonzero;stroke:none"
       id="path452" /><path
       d="m 2152.27,327.93 512.3,324.648"
       style="fill:none;stroke:#808080;stroke-width:7.5;stroke-linecap:butt;stroke-linejoin:miter;stroke-miterlimit:4;stroke-dasharray:30, 15, 7.5, 15;stroke-dashoffset:0;stroke-opacity:1"
       id="path454" /><path
       d="m 2372.58,60.4688 0.15,859.9222"
       style="fill:none;stroke:#808080;stroke-width:7.5;stroke-linecap:butt;stroke-linejoin:miter;stroke-miterlimit:4;stroke-dasharray:30, 15, 7.5, 15;stroke-dashoffset:0;stroke-opacity:1"
       id="path456" /><path
       d="M 2350.31,50.5117 2136.68,292.07"
       style="fill:none;stroke:#808080;stroke-width:7.5;stroke-linecap:butt;stroke-linejoin:miter;stroke-miterlimit:4;stroke-dasharray:30, 15, 7.5, 15;stroke-dashoffset:0;stroke-opacity:1"
       id="path458" /><path
       d="m 2555.31,864.922 c 0,0 0,0.738 -0.86,0.738 -1.01,0 -7.26,-0.621 -8.43,-0.738 -0.51,-0.121 -0.94,-0.434 -0.94,-1.25 0,-0.82 0.62,-0.82 1.56,-0.82 3.24,0 3.36,-0.43 3.36,-1.172 l -0.23,-1.328 -3.95,-15.743 c -1.25,2.5 -3.12,4.262 -6.13,4.262 -7.74,0 -15.94,-9.769 -15.94,-19.461 0,-6.25 3.63,-10.621 8.75,-10.621 1.33,0 4.69,0.313 8.63,5 0.51,-2.809 2.93,-5 6.06,-5 2.38,0 3.83,1.563 5,3.633 1.01,2.379 1.95,6.449 1.95,6.558 0,0.75 -0.62,0.75 -0.82,0.75 -0.62,0 -0.74,-0.32 -0.94,-1.25 -1.13,-4.3 -2.3,-8.25 -5,-8.25 -1.87,0 -1.99,1.758 -1.99,3.008 0,1.684 0.12,2.114 0.31,3.242 z m -13.75,-37.5 c -0.43,-1.25 -0.43,-1.371 -1.36,-2.5 -2.93,-3.633 -5.63,-4.692 -7.5,-4.692 -3.32,0 -4.26,3.641 -4.26,6.25 0,3.321 2.07,11.45 3.63,14.571 2.07,3.871 5,6.371 7.7,6.371 4.29,0 5.23,-5.434 5.23,-5.82 0,-0.43 -0.12,-0.864 -0.23,-1.172 z"
       style="fill:#666666;fill-opacity:1;fill-rule:nonzero;stroke:none"
       id="path460" /><path
       d="m 2567.7,825.199 c 1.13,0 3.32,0 5,-1.058 2.18,-1.371 2.38,-3.871 2.38,-4.18 0,-0.621 0,-1.25 0.86,-1.25 0.7,0 0.7,0.629 0.7,1.488 v 12.571 c 0,0.75 0,1.492 -0.7,1.492 -0.86,0 -0.86,-0.633 -0.86,-1.063 -0.31,-6.051 -5,-6.359 -7.38,-6.359 v 9.801 c 0,3.129 0.82,3.129 1.99,3.129 h 2.19 c 6.24,0 9.37,-3.25 9.68,-6.45 0,-0.308 0.08,-1.05 0.82,-1.05 0.74,0 0.74,0.742 0.74,1.558 v 6.051 c 0,1.449 0,1.57 -1.48,1.57 h -23.83 c -0.86,0 -1.56,0 -1.56,-0.937 0,-0.742 0.94,-0.742 1.25,-0.742 2.7,0 2.81,-0.43 2.81,-2.7 v -23.242 c 0,-2.187 -0.11,-2.617 -2.5,-2.617 -0.74,0 -1.56,0 -1.56,-0.82 0,-0.821 0.7,-0.821 1.56,-0.821 h 24.69 c 0.82,0 1.33,0 1.45,0.629 0.11,0.071 1.36,7.813 1.36,8 0,0.512 -0.43,0.821 -0.86,0.821 -0.62,0 -0.82,-0.5 -0.82,-0.622 -0.19,-1.128 -0.74,-3.128 -4.06,-5.078 -2.5,-1.48 -4.8,-2.109 -7.38,-2.109 h -2.5 c -1.17,0 -1.99,0 -1.99,3.051 z m 13.86,14.571 v -2.309 c -0.86,0.937 -1.68,1.68 -2.73,2.309 z m -9.06,-13.641 c 0.7,0.32 1.76,1.019 2.58,1.961 v -3.828 c -1.13,1.25 -2.58,1.867 -2.58,1.867 z m -10.55,11.019 c 0,0.622 0,1.801 -0.31,2.622 h 4.92 c -0.54,-1.059 -0.54,-2.622 -0.54,-3.008 v -22.5 c 0,-1.684 0.31,-2.621 0.54,-3.051 h -4.92 c 0.31,0.859 0.31,1.988 0.31,2.5 z m 17.31,-25.937 c 1.44,0.738 2.69,1.801 3.63,2.617 0,-0.199 -0.31,-2.308 -0.39,-2.617 z"
       style="fill:#666666;fill-opacity:1;fill-rule:nonzero;stroke:none"
       id="path462" /><path
       d="m 2606.17,809.379 h -1.44 c 0,-0.629 -0.43,-2.699 -0.94,-3.008 -0.2,-0.242 -3.01,-0.242 -3.56,-0.242 h -6.44 c 2.19,1.57 4.57,3.441 6.56,4.812 3.01,2.071 5.82,3.938 5.82,7.5 0,4.258 -4.06,6.559 -8.75,6.559 -4.45,0 -7.81,-2.5 -7.81,-5.82 0,-1.68 1.48,-1.989 1.99,-1.989 0.82,0 1.88,0.618 1.88,1.989 0,1.129 -0.82,1.871 -1.88,1.871 0.94,1.57 2.93,2.5 5.12,2.5 3.2,0 5.94,-1.871 5.94,-5.11 0,-2.82 -2,-5 -4.5,-7.07 l -8.12,-6.883 c -0.31,-0.308 -0.43,-0.308 -0.43,-0.539 v -1.019 h 15.43 z"
       style="fill:#666666;fill-opacity:1;fill-rule:nonzero;stroke:none"
       id="path464" /><path
       d="m 2605.08,399.57 c 0,0 0,0.739 -0.82,0.739 -1.06,0 -7.31,-0.618 -8.44,-0.739 -0.55,-0.082 -0.94,-0.39 -0.94,-1.25 0,-0.82 0.63,-0.82 1.57,-0.82 3.2,0 3.32,-0.43 3.32,-1.129 l -0.2,-1.371 -3.98,-15.738 c -1.25,2.5 -3.13,4.289 -6.14,4.289 -7.69,0 -15.93,-9.801 -15.93,-19.492 0,-6.25 3.63,-10.618 8.75,-10.618 1.36,0 4.68,0.309 8.63,5 0.55,-2.82 2.93,-5 6.05,-5 2.39,0 3.87,1.559 5,3.629 1.06,2.418 2,6.481 2,6.559 0,0.75 -0.63,0.75 -0.86,0.75 -0.63,0 -0.71,-0.32 -0.94,-1.258 -1.13,-4.25 -2.27,-8.242 -5,-8.242 -1.88,0 -1.95,1.801 -1.95,3.051 0,1.64 0.07,2.07 0.31,3.199 z m -13.75,-37.5 c -0.43,-1.25 -0.43,-1.332 -1.37,-2.5 -2.89,-3.629 -5.62,-4.691 -7.5,-4.691 -3.32,0 -4.26,3.672 -4.26,6.25 0,3.359 2.07,11.492 3.64,14.609 2.11,3.832 5,6.332 7.73,6.332 4.26,0 5.2,-5.39 5.2,-5.82 0,-0.43 -0.12,-0.82 -0.2,-1.129 z"
       style="fill:#666666;fill-opacity:1;fill-rule:nonzero;stroke:none"
       id="path466" /><path
       d="m 2617.46,359.84 c 1.13,0 3.32,0 5,-1.051 2.19,-1.367 2.38,-3.867 2.38,-4.18 0,-0.629 0,-1.25 0.86,-1.25 0.71,0 0.71,0.621 0.71,1.481 v 12.582 c 0,0.738 0,1.488 -0.71,1.488 -0.86,0 -0.86,-0.629 -0.86,-1.058 -0.31,-6.051 -5,-6.372 -7.38,-6.372 v 9.809 c 0,3.121 0.82,3.121 1.99,3.121 h 2.19 c 6.25,0 9.38,-3.238 9.69,-6.441 0,-0.309 0.08,-1.059 0.82,-1.059 0.74,0 0.74,0.75 0.74,1.57 v 6.051 c 0,1.449 0,1.559 -1.48,1.559 h -23.83 c -0.86,0 -1.56,0 -1.56,-0.93 0,-0.75 0.93,-0.75 1.25,-0.75 2.69,0 2.81,-0.43 2.81,-2.691 V 348.48 c 0,-2.191 -0.12,-2.621 -2.5,-2.621 -0.74,0 -1.56,0 -1.56,-0.82 0,-0.82 0.7,-0.82 1.56,-0.82 h 24.69 c 0.82,0 1.32,0 1.44,0.621 0.12,0.082 1.37,7.82 1.37,8.012 0,0.507 -0.43,0.82 -0.86,0.82 -0.63,0 -0.82,-0.512 -0.82,-0.621 -0.2,-1.141 -0.74,-3.129 -4.06,-5.082 -2.5,-1.489 -4.81,-2.11 -7.39,-2.11 h -2.5 c -1.17,0 -1.99,0 -1.99,3.051 z m 13.87,14.57 v -2.301 c -0.86,0.942 -1.68,1.68 -2.74,2.301 z m -9.06,-13.629 c 0.7,0.309 1.75,1.02 2.57,1.949 v -3.82 c -1.13,1.25 -2.57,1.871 -2.57,1.871 z m -10.55,11.02 c 0,0.621 0,1.789 -0.31,2.609 h 4.92 c -0.55,-1.051 -0.55,-2.609 -0.55,-3 v -22.5 c 0,-1.68 0.31,-2.621 0.55,-3.051 h -4.92 c 0.31,0.86 0.31,1.993 0.31,2.5 z m 17.3,-25.942 c 1.45,0.743 2.7,1.801 3.64,2.621 0,-0.199 -0.32,-2.308 -0.39,-2.621 z"
       style="fill:#666666;fill-opacity:1;fill-rule:nonzero;stroke:none"
       id="path468" /><path
       d="m 2647.3,348.59 c 3.13,0 5.12,-1.949 5.12,-5.192 0,-3.437 -2.11,-5.199 -5,-5.199 -0.43,0 -4.37,0 -6.05,1.762 1.36,0.199 1.75,1.129 1.75,1.988 0,1.25 -0.93,2.071 -2.07,2.071 -1.05,0 -1.99,-0.739 -1.99,-2.18 0,-3.442 3.87,-5 8.44,-5 5.43,0 8.75,3.32 8.75,6.558 0,2.692 -2.38,5 -6.13,5.821 3.94,1.371 5,3.871 5,5.742 0,2.699 -3.32,4.687 -7.5,4.687 -4.18,0 -7.39,-1.679 -7.39,-4.687 0,-1.563 1.25,-1.992 1.88,-1.992 0.94,0 1.87,0.742 1.87,1.992 0,0.738 -0.43,1.68 -1.56,1.879 1.33,1.441 4.38,1.558 5.08,1.558 2.42,0 4.06,-1.128 4.06,-3.437 0,-1.992 -1.25,-5 -4.68,-5.191 -0.94,0 -1.02,0 -1.96,-0.122 -0.31,0 -0.74,0 -0.74,-0.507 0,-0.551 0.31,-0.551 0.94,-0.551 z"
       style="fill:#666666;fill-opacity:1;fill-rule:nonzero;stroke:none"
       id="path470" /><path
       d="m 2204.3,170.738 c 0,0 0,0.711 -0.82,0.711 -1.06,0 -7.31,-0.629 -8.44,-0.711 -0.55,-0.117 -0.94,-0.429 -0.94,-1.25 0,-0.859 0.63,-0.859 1.56,-0.859 3.21,0 3.32,-0.391 3.32,-1.129 l -0.19,-1.371 -3.99,-15.699 c -1.25,2.5 -3.12,4.261 -6.13,4.261 -7.69,0 -15.94,-9.812 -15.94,-19.492 0,-6.25 3.64,-10.629 8.75,-10.629 1.37,0 4.69,0.309 8.64,5 0.54,-2.808 2.93,-5 6.05,-5 2.38,0 3.87,1.559 5,3.668 1.06,2.383 1.99,6.453 1.99,6.563 0,0.711 -0.62,0.711 -0.86,0.711 -0.62,0 -0.7,-0.313 -0.93,-1.25 -1.14,-4.262 -2.27,-8.211 -5,-8.211 -1.88,0 -1.96,1.758 -1.96,3.008 0,1.679 0.08,2.07 0.32,3.242 z m -13.75,-37.5 c -0.43,-1.25 -0.43,-1.359 -1.37,-2.5 -2.89,-3.668 -5.63,-4.687 -7.5,-4.687 -3.32,0 -4.26,3.64 -4.26,6.25 0,3.32 2.07,11.449 3.63,14.578 2.11,3.859 5,6.359 7.74,6.359 4.26,0 5.19,-5.429 5.19,-5.859 0,-0.391 -0.11,-0.82 -0.19,-1.129 z"
       style="fill:#666666;fill-opacity:1;fill-rule:nonzero;stroke:none"
       id="path472" /><path
       d="m 2216.68,130.98 c 1.13,0 3.32,0 5,-1.058 2.19,-1.332 2.38,-3.832 2.38,-4.141 0,-0.621 0,-1.25 0.86,-1.25 0.7,0 0.7,0.629 0.7,1.449 v 12.61 c 0,0.711 0,1.449 -0.7,1.449 -0.86,0 -0.86,-0.629 -0.86,-1.059 -0.31,-6.011 -5,-6.32 -7.38,-6.32 v 9.762 c 0,3.129 0.82,3.129 1.99,3.129 h 2.19 c 6.25,0 9.37,-3.211 9.69,-6.449 0,-0.313 0.07,-1.051 0.82,-1.051 0.74,0 0.74,0.738 0.74,1.558 v 6.051 c 0,1.449 0,1.57 -1.49,1.57 h -23.82 c -0.86,0 -1.57,0 -1.57,-0.941 0,-0.738 0.94,-0.738 1.25,-0.738 2.7,0 2.82,-0.391 2.82,-2.699 v -23.243 c 0,-2.187 -0.12,-2.578 -2.5,-2.578 -0.75,0 -1.57,0 -1.57,-0.859 0,-0.82 0.71,-0.82 1.57,-0.82 h 24.68 c 0.82,0 1.33,0 1.45,0.628 0.12,0.11 1.37,7.809 1.37,8 0,0.551 -0.43,0.86 -0.86,0.86 -0.63,0 -0.82,-0.539 -0.82,-0.621 -0.2,-1.168 -0.74,-3.129 -4.07,-5.117 -2.5,-1.442 -4.8,-2.071 -7.38,-2.071 h -2.5 c -1.17,0 -1.99,0 -1.99,3.008 z m 13.87,14.571 v -2.27 c -0.86,0.938 -1.68,1.641 -2.74,2.27 z m -9.07,-13.641 c 0.71,0.32 1.76,1.059 2.58,2 v -3.871 c -1.13,1.25 -2.58,1.871 -2.58,1.871 z m -10.54,11.059 c 0,0.621 0,1.761 -0.32,2.582 h 4.93 c -0.55,-1.02 -0.55,-2.582 -0.55,-3.012 v -22.5 c 0,-1.68 0.31,-2.617 0.55,-3.008 h -4.93 c 0.32,0.821 0.32,1.949 0.32,2.5 z m 17.3,-25.938 c 1.45,0.699 2.7,1.758 3.64,2.578 0,-0.199 -0.32,-2.269 -0.4,-2.578 z"
       style="fill:#666666;fill-opacity:1;fill-rule:nonzero;stroke:none"
       id="path474" /><path
       d="m 2256.09,114.141 v 1.449 h -4.14 v 14.57 c 0,0.86 0,1.051 -0.93,1.051 -0.63,0 -0.63,0 -1.06,-0.512 l -12.3,-15.109 v -1.449 h 11.05 v -2.621 c 0,-1.051 0,-1.36 -2.81,-1.36 h -1.25 v -1.449 c 1.56,0.117 3.75,0.117 5.74,0.117 1.88,0 4.06,0 5.63,-0.117 v 1.449 h -1.18 c -2.89,0 -2.89,0.309 -2.89,1.36 v 2.621 z m -7.07,13.519 v -12.07 h -9.8 z"
       style="fill:#666666;fill-opacity:1;fill-rule:nonzero;stroke:none"
       id="path476" /><path
       d="m 2267.46,384.73 c 0,0 0,0.739 -0.82,0.739 -1.05,0 -7.3,-0.629 -8.44,-0.739 -0.54,-0.082 -0.93,-0.39 -0.93,-1.25 0,-0.82 0.62,-0.82 1.56,-0.82 3.2,0 3.32,-0.43 3.32,-1.14 l -0.2,-1.36 -3.98,-15.75 c -1.25,2.5 -3.13,4.301 -6.13,4.301 -7.7,0 -15.94,-9.801 -15.94,-19.492 0,-6.25 3.63,-10.629 8.75,-10.629 1.37,0 4.69,0.32 8.63,5 0.55,-2.809 2.93,-5 6.06,-5 2.38,0 3.86,1.57 5,3.64 1.05,2.418 1.99,6.481 1.99,6.559 0,0.742 -0.63,0.742 -0.86,0.742 -0.63,0 -0.7,-0.312 -0.94,-1.25 -1.13,-4.261 -2.26,-8.242 -5,-8.242 -1.87,0 -1.95,1.801 -1.95,3.051 0,1.64 0.08,2.07 0.31,3.199 z m -13.75,-37.5 c -0.43,-1.25 -0.43,-1.332 -1.37,-2.5 -2.89,-3.64 -5.62,-4.691 -7.5,-4.691 -3.32,0 -4.25,3.672 -4.25,6.25 0,3.359 2.07,11.481 3.63,14.609 2.11,3.832 5,6.332 7.73,6.332 4.26,0 5.2,-5.39 5.2,-5.82 0,-0.43 -0.12,-0.82 -0.2,-1.14 z"
       style="fill:#666666;fill-opacity:1;fill-rule:nonzero;stroke:none"
       id="path478" /><path
       d="m 2279.84,345 c 1.14,0 3.32,0 5,-1.051 2.19,-1.371 2.39,-3.871 2.39,-4.179 0,-0.629 0,-1.25 0.86,-1.25 0.7,0 0.7,0.621 0.7,1.48 v 12.578 c 0,0.742 0,1.481 -0.7,1.481 -0.86,0 -0.86,-0.618 -0.86,-1.047 -0.32,-6.063 -5,-6.371 -7.39,-6.371 v 9.808 c 0,3.121 0.82,3.121 2,3.121 h 2.18 c 6.25,0 9.38,-3.242 9.69,-6.449 0,-0.312 0.08,-1.051 0.82,-1.051 0.74,0 0.74,0.739 0.74,1.559 v 6.062 c 0,1.438 0,1.559 -1.48,1.559 h -23.83 c -0.86,0 -1.56,0 -1.56,-0.941 0,-0.739 0.94,-0.739 1.25,-0.739 2.69,0 2.81,-0.429 2.81,-2.691 v -23.25 c 0,-2.18 -0.12,-2.609 -2.5,-2.609 -0.74,0 -1.56,0 -1.56,-0.821 0,-0.82 0.7,-0.82 1.56,-0.82 h 24.69 c 0.82,0 1.33,0 1.44,0.621 0.12,0.078 1.37,7.809 1.37,8.012 0,0.508 -0.43,0.816 -0.86,0.816 -0.62,0 -0.82,-0.508 -0.82,-0.629 -0.19,-1.129 -0.74,-3.121 -4.06,-5.078 -2.5,-1.48 -4.81,-2.101 -7.38,-2.101 h -2.5 c -1.18,0 -2,0 -2,3.039 z m 13.87,14.57 v -2.3 c -0.86,0.929 -1.68,1.679 -2.73,2.3 z m -9.06,-13.629 c 0.7,0.309 1.76,1.008 2.58,1.95 v -3.832 c -1.14,1.25 -2.58,1.882 -2.58,1.882 z m -10.55,11.008 c 0,0.629 0,1.801 -0.31,2.621 h 4.92 c -0.55,-1.05 -0.55,-2.621 -0.55,-3.011 v -22.5 c 0,-1.68 0.32,-2.61 0.55,-3.039 h -4.92 c 0.31,0.859 0.31,1.992 0.31,2.5 z m 17.31,-25.929 c 1.44,0.742 2.69,1.789 3.63,2.609 0,-0.188 -0.31,-2.301 -0.39,-2.609 z"
       style="fill:#666666;fill-opacity:1;fill-rule:nonzero;stroke:none"
       id="path480" /><path
       d="m 2305.31,341.051 c 1.68,-0.43 3.24,-0.43 3.56,-0.43 2.3,0 3.94,0.629 4.8,1.059 0.82,0.429 3.13,1.871 3.13,2.621 0,0.5 -0.43,0.5 -0.55,0.5 -0.08,0 -0.08,0 -0.51,-0.11 -1.25,-0.39 -3.32,-0.941 -5.51,-0.941 -1.87,0 -3.67,0.309 -5.43,0.941 -0.42,0.11 -0.42,0.11 -0.5,0.11 -0.55,0 -0.55,-0.313 -0.55,-0.821 v -10 c 0,-0.621 0,-1.05 0.74,-1.05 0.31,0 0.31,0.121 0.63,0.429 1.25,1.442 3,2.192 5.31,2.192 1.87,0 3.01,-1.063 3.44,-1.801 0.74,-1.129 0.93,-2.578 0.93,-4.262 0,-1.367 -0.11,-3.238 -1.44,-4.488 -1.48,-1.559 -3.36,-1.641 -4.06,-1.641 -2.19,0 -4.61,0.942 -5.63,2.891 1.33,0.121 1.88,1.051 1.88,1.871 0,1.059 -0.86,1.879 -1.88,1.879 -0.74,0 -1.87,-0.512 -1.87,-1.949 0,-3.36 3.2,-6.063 7.5,-6.063 5,0 9.06,3.321 9.06,7.391 0,3.742 -3.24,7.301 -7.81,7.301 -2.11,0 -3.87,-0.508 -5.24,-1.68 z"
       style="fill:#666666;fill-opacity:1;fill-rule:nonzero;stroke:none"
       id="path482" /><path
       d="m 2414.14,733.871 c 0,0 0,0.699 -0.82,0.699 -1.05,0 -7.3,-0.621 -8.44,-0.699 -0.54,-0.121 -0.93,-0.43 -0.93,-1.25 0,-0.859 0.62,-0.859 1.56,-0.859 3.2,0 3.32,-0.391 3.32,-1.141 l -0.2,-1.359 -3.98,-15.711 c -1.25,2.5 -3.13,4.258 -6.13,4.258 -7.7,0 -15.94,-9.797 -15.94,-19.489 0,-6.25 3.63,-10.621 8.75,-10.621 1.37,0 4.69,0.313 8.63,5 0.55,-2.82 2.93,-5 6.06,-5 2.38,0 3.86,1.563 5,3.672 1.05,2.379 1.99,6.438 1.99,6.559 0,0.699 -0.63,0.699 -0.86,0.699 -0.63,0 -0.7,-0.309 -0.94,-1.25 -1.13,-4.258 -2.26,-8.199 -5,-8.199 -1.87,0 -1.95,1.761 -1.95,3.011 0,1.68 0.08,2.071 0.31,3.239 z m -13.75,-37.5 c -0.43,-1.25 -0.43,-1.371 -1.37,-2.5 -2.89,-3.672 -5.62,-4.691 -7.5,-4.691 -3.32,0 -4.25,3.629 -4.25,6.25 0,3.32 2.07,11.449 3.63,14.57 2.11,3.871 5,6.371 7.73,6.371 4.26,0 5.2,-5.43 5.2,-5.859 0,-0.391 -0.12,-0.821 -0.2,-1.133 z"
       style="fill:#666666;fill-opacity:1;fill-rule:nonzero;stroke:none"
       id="path484" /><path
       d="m 2426.52,694.102 c 1.14,0 3.32,0 5,-1.051 2.19,-1.332 2.39,-3.832 2.39,-4.141 0,-0.629 0,-1.25 0.86,-1.25 0.7,0 0.7,0.621 0.7,1.442 v 12.617 c 0,0.703 0,1.441 -0.7,1.441 -0.86,0 -0.86,-0.621 -0.86,-1.051 -0.32,-6.019 -5,-6.328 -7.39,-6.328 v 9.77 c 0,3.121 0.82,3.121 2,3.121 h 2.18 c 6.25,0 9.38,-3.203 9.69,-6.442 0,-0.32 0.08,-1.058 0.82,-1.058 0.74,0 0.74,0.738 0.74,1.558 v 6.059 c 0,1.441 0,1.563 -1.48,1.563 h -23.83 c -0.86,0 -1.56,0 -1.56,-0.942 0,-0.738 0.94,-0.738 1.25,-0.738 2.69,0 2.81,-0.391 2.81,-2.692 v -23.25 c 0,-2.179 -0.12,-2.57 -2.5,-2.57 -0.74,0 -1.56,0 -1.56,-0.859 0,-0.821 0.7,-0.821 1.56,-0.821 h 24.69 c 0.82,0 1.33,0 1.44,0.622 0.12,0.117 1.37,7.808 1.37,8.007 0,0.551 -0.43,0.86 -0.86,0.86 -0.62,0 -0.82,-0.547 -0.82,-0.629 -0.19,-1.168 -0.74,-3.121 -4.06,-5.11 -2.5,-1.449 -4.81,-2.07 -7.38,-2.07 h -2.5 c -1.18,0 -2,0 -2,3 z m 13.87,14.57 v -2.262 c -0.86,0.93 -1.68,1.641 -2.73,2.262 z m -9.06,-13.633 c 0.7,0.313 1.76,1.051 2.58,1.992 v -3.871 c -1.14,1.25 -2.58,1.879 -2.58,1.879 z m -10.55,11.051 c 0,0.629 0,1.762 -0.31,2.582 h 4.92 c -0.55,-1.012 -0.55,-2.582 -0.55,-3.012 v -22.5 c 0,-1.68 0.32,-2.609 0.55,-3 h -4.92 c 0.31,0.82 0.31,1.949 0.31,2.5 z m 17.31,-25.93 c 1.44,0.699 2.69,1.75 3.63,2.57 0,-0.191 -0.31,-2.261 -0.39,-2.57 z"
       style="fill:#666666;fill-opacity:1;fill-rule:nonzero;stroke:none"
       id="path486" /><path
       d="m 2451.6,682.77 c 0.08,1.449 0.08,4.179 1.25,6.25 1.02,1.761 3.13,3.64 6.25,3.64 0.63,0 2.19,0 3.13,-0.82 -0.55,-0.121 -1.37,-0.629 -1.37,-1.762 0,-1.058 0.74,-1.797 1.76,-1.797 0.54,0 1.79,0.309 1.79,1.879 0,1.789 -1.36,3.75 -5.31,3.75 -5.74,0 -10.94,-4.691 -10.94,-11.57 0,-7.891 3.83,-11.25 8.64,-11.25 3.32,0 4.88,1.25 6.05,2.191 2.07,1.797 2.5,3.668 2.5,5.309 0,2.109 -0.62,3.68 -2.42,5.238 -1.45,1.332 -2.89,2.262 -5.82,2.262 -1.99,0 -4.06,-0.93 -5.51,-3.32 z m 5.2,-10.309 c -5.12,0 -5.12,5.508 -5.12,6.879 0,2.609 1.87,5.621 5.31,5.621 1.8,0 2.81,-0.43 3.87,-1.762 0.94,-1.25 1.05,-2.609 1.05,-4.488 0,-1.992 0,-3.242 -1.17,-4.57 -0.94,-1.051 -2.07,-1.68 -3.94,-1.68 z"
       style="fill:#666666;fill-opacity:1;fill-rule:nonzero;stroke:none"
       id="path488" /><path
       d="m 2146.56,634.73 c 0,0 0,0.739 -0.82,0.739 -1.05,0 -7.3,-0.629 -8.44,-0.739 -0.5,-0.121 -0.93,-0.429 -0.93,-1.25 0,-0.82 0.62,-0.82 1.56,-0.82 3.24,0 3.32,-0.43 3.32,-1.18 l -0.2,-1.32 -3.94,-15.75 c -1.25,2.5 -3.13,4.262 -6.17,4.262 -7.7,0 -15.94,-9.762 -15.94,-19.453 0,-6.25 3.67,-10.629 8.75,-10.629 1.37,0 4.69,0.32 8.67,5 0.51,-2.809 2.89,-5 6.02,-5 2.42,0 3.86,1.57 5,3.64 1.05,2.379 1.99,6.442 1.99,6.559 0,0.742 -0.63,0.742 -0.82,0.742 -0.63,0 -0.74,-0.312 -0.94,-1.25 -1.17,-4.301 -2.3,-8.242 -5,-8.242 -1.87,0 -1.99,1.762 -1.99,3.012 0,1.679 0.12,2.109 0.31,3.238 z m -13.75,-37.5 c -0.39,-1.25 -0.39,-1.371 -1.33,-2.5 -2.93,-3.64 -5.62,-4.691 -7.5,-4.691 -3.36,0 -4.29,3.633 -4.29,6.25 0,3.32 2.11,11.441 3.67,14.57 2.07,3.871 5,6.371 7.69,6.371 4.26,0 5.2,-5.429 5.2,-5.82 0,-0.43 -0.08,-0.859 -0.2,-1.18 z"
       style="fill:#666666;fill-opacity:1;fill-rule:nonzero;stroke:none"
       id="path490" /><path
       d="m 2158.95,594.961 c 1.17,0 3.35,0 5,-1.012 2.18,-1.371 2.42,-3.871 2.42,-4.179 0,-0.629 0,-1.25 0.82,-1.25 0.74,0 0.74,0.621 0.74,1.441 v 12.617 c 0,0.742 0,1.442 -0.74,1.442 -0.82,0 -0.82,-0.622 -0.82,-1.008 -0.32,-6.063 -5,-6.371 -7.42,-6.371 v 9.808 c 0,3.121 0.85,3.121 1.99,3.121 h 2.18 c 6.26,0 9.38,-3.242 9.69,-6.48 0,-0.32 0.12,-1.02 0.82,-1.02 0.75,0 0.75,0.7 0.75,1.559 v 6.019 c 0,1.481 0,1.563 -1.45,1.563 h -23.87 c -0.82,0 -1.56,0 -1.56,-0.941 0,-0.7 0.94,-0.7 1.25,-0.7 2.7,0 2.81,-0.429 2.81,-2.73 v -23.211 c 0,-2.18 -0.11,-2.609 -2.5,-2.609 -0.74,0 -1.56,0 -1.56,-0.821 0,-0.859 0.74,-0.859 1.56,-0.859 h 24.69 c 0.82,0 1.37,0 1.45,0.621 0.11,0.117 1.36,7.809 1.36,8.051 0,0.508 -0.43,0.816 -0.82,0.816 -0.62,0 -0.86,-0.508 -0.86,-0.629 -0.19,-1.129 -0.7,-3.121 -4.06,-5.109 -2.5,-1.449 -4.77,-2.07 -7.38,-2.07 h -2.5 c -1.14,0 -1.99,0 -1.99,3 z m 13.86,14.609 v -2.3 c -0.82,0.929 -1.68,1.679 -2.69,2.3 z m -9.06,-13.672 c 0.74,0.313 1.76,1.051 2.62,1.993 v -3.871 c -1.17,1.25 -2.62,1.878 -2.62,1.878 z m -10.51,11.051 c 0,0.629 0,1.762 -0.31,2.621 h 4.88 c -0.51,-1.05 -0.51,-2.621 -0.51,-3.05 v -22.5 c 0,-1.641 0.32,-2.571 0.51,-3 h -4.88 c 0.31,0.82 0.31,1.992 0.31,2.5 z m 17.27,-25.929 c 1.48,0.742 2.73,1.75 3.67,2.609 0,-0.231 -0.31,-2.301 -0.43,-2.609 z"
       style="fill:#666666;fill-opacity:1;fill-rule:nonzero;stroke:none"
       id="path492" /><path
       d="m 2198.59,592.621 c 0.32,0.309 0.32,0.391 0.43,0.617 v 0.821 h -8.12 c -0.86,0 -5.74,0.203 -6.25,0.32 -0.86,0.109 -0.86,0.422 -0.94,0.82 h -1.37 l -1.25,-7.5 h 1.37 c 0.08,0.539 0.39,2.61 1.02,3.039 0.23,0.082 3.36,0.203 3.86,0.203 h 7.93 c -1.48,-1.679 -3.24,-3.441 -4.61,-5.121 -3.94,-5 -4.37,-9.769 -4.37,-11.871 0,-1.758 1.17,-1.961 1.8,-1.961 1.75,0 1.75,1.641 1.75,2.071 v 0.632 c 0,5.93 1.25,9.571 3.25,11.758 z"
       style="fill:#666666;fill-opacity:1;fill-rule:nonzero;stroke:none"
       id="path494" /><path
       d="M 1333.67,699.379 C 1315.16,689.301 1314.1,677.191 1314.1,675 c 0,-6.988 6.88,-11.52 15.78,-11.52 15.43,0 27.97,14.719 27.97,16.641 0,0.578 -0.43,0.738 -1.01,0.738 -1.02,0 -4.65,-1.328 -6.68,-4.097 -2.07,-2.782 -5.86,-8.172 -14.18,-8.172 -6.68,0 -13.99,3.519 -13.99,10.512 0,4.527 5.24,18.199 19.96,18.789 4.38,0.16 7.62,3.519 7.62,4.531 0,0.43 -0.47,0.59 -0.9,0.59 -13.12,0.578 -15.74,6.988 -15.74,10.66 0,2.187 1.33,12.379 14.45,12.379 1.72,0 8.75,-0.313 8.75,-5.11 0,-1.601 -0.74,-2.89 -1.05,-3.363 -0.28,-0.277 -0.55,-0.699 -0.55,-1.019 0,-0.7 0.7,-0.7 1.02,-0.7 2.77,0 8.43,3.629 8.43,8.871 0,5.54 -6.4,6.442 -10.5,6.442 -12.66,0 -28.44,-10.082 -28.44,-21.442 0,-5.55 4.1,-8.91 8.63,-10.351 z"
       style="fill:#000000;fill-opacity:1;fill-rule:nonzero;stroke:none"
       id="path496" /><path
       d="m 1399.65,643.199 c 0,0.321 0,0.473 -1.6,2.071 -11.53,11.64 -14.57,29.3 -14.57,43.601 0,16.168 3.47,32.379 15,43.899 1.17,1.179 1.17,1.289 1.17,1.609 0,0.699 -0.27,1.012 -0.86,1.012 -1.02,0 -9.34,-6.411 -14.88,-18.243 -4.69,-10.199 -5.82,-20.546 -5.82,-28.277 0,-7.312 1.01,-18.519 6.09,-29.18 5.7,-11.371 13.59,-17.5 14.61,-17.5 0.59,0 0.86,0.309 0.86,1.008 z"
       style="fill:#000000;fill-opacity:1;fill-rule:nonzero;stroke:none"
       id="path498" /><path
       d="m 1422.85,688.871 c 0,2.609 -2.19,4.801 -4.8,4.801 -2.78,0 -4.96,-2.192 -4.96,-4.801 0,-2.781 2.18,-4.961 4.96,-4.961 2.61,0 4.8,2.18 4.8,4.961 z"
       style="fill:#000000;fill-opacity:1;fill-rule:nonzero;stroke:none"
       id="path500" /><path
       d="m 1457.7,688.871 c 0,7.149 -1.02,18.359 -6.1,29.02 -5.55,11.371 -13.59,17.5 -14.45,17.5 -0.59,0 -1.02,-0.43 -1.02,-1.012 0,-0.32 0,-0.43 1.76,-2.188 9.18,-9.179 14.41,-23.953 14.41,-43.32 0,-16.062 -3.35,-32.391 -14.88,-44.031 -1.29,-1.168 -1.29,-1.32 -1.29,-1.641 0,-0.539 0.43,-1.008 1.02,-1.008 0.86,0 9.33,6.438 14.73,18.239 4.8,10.191 5.82,20.55 5.82,28.441 z"
       style="fill:#000000;fill-opacity:1;fill-rule:nonzero;stroke:none"
       id="path502" /><path
       d="m 1300.66,439.531 c -18.51,-10.082 -19.53,-22.152 -19.53,-24.332 0,-7.039 6.84,-11.527 15.75,-11.527 15.46,0 28,14.726 28,16.598 0,0.589 -0.43,0.75 -1.01,0.75 -1.02,0 -4.69,-1.329 -6.72,-4.11 -2.03,-2.769 -5.82,-8.16 -14.14,-8.16 -6.72,0 -13.99,3.52 -13.99,10.512 0,4.527 5.24,18.238 19.96,18.828 4.38,0.109 7.58,3.469 7.58,4.488 0,0.473 -0.43,0.582 -0.86,0.582 -13.12,0.59 -15.78,7.039 -15.78,10.668 0,2.192 1.33,12.383 14.46,12.383 1.75,0 8.74,-0.27 8.74,-5.082 0,-1.641 -0.74,-2.93 -1.01,-3.359 -0.31,-0.309 -0.59,-0.739 -0.59,-1.008 0,-0.742 0.75,-0.742 1.02,-0.742 2.77,0 8.48,3.628 8.48,8.902 0,5.508 -6.45,6.406 -10.51,6.406 -12.7,0 -28.44,-10.078 -28.44,-21.449 0,-5.539 4.06,-8.899 8.59,-10.348 z"
       style="fill:#000000;fill-opacity:1;fill-rule:nonzero;stroke:none"
       id="path504" /><path
       d="m 1384.3,454.18 c 1.01,0 2.65,0 2.65,1.441 0,1.758 -1.64,1.758 -2.65,1.758 h -38.79 c -1.02,0 -2.62,0 -2.62,-1.598 0,-1.601 1.45,-1.601 2.62,-1.601 z"
       style="fill:#000000;fill-opacity:1;fill-rule:nonzero;stroke:none"
       id="path506" /><path
       d="m 1415.74,480.859 c 0,1.762 0,1.762 -1.91,1.762 -4.22,-4.101 -10.04,-4.101 -12.66,-4.101 v -2.309 c 1.45,0 5.82,0 9.34,1.719 v -33.09 c 0,-2.18 0,-3.039 -6.45,-3.039 h -2.46 v -2.352 c 1.17,0 9.18,0.281 11.52,0.281 2.04,0 10.2,-0.281 11.65,-0.281 v 2.352 h -2.47 c -6.56,0 -6.56,0.859 -6.56,3.039 z"
       style="fill:#000000;fill-opacity:1;fill-rule:nonzero;stroke:none"
       id="path508" /><path
       d="m 1466.48,383.398 c 0,0.274 0,0.43 -1.6,2.032 -11.52,11.679 -14.57,29.3 -14.57,43.59 0,16.21 3.48,32.39 15,43.91 1.17,1.172 1.17,1.332 1.17,1.601 0,0.739 -0.27,1.02 -0.86,1.02 -1.01,0 -9.33,-6.41 -14.88,-18.25 -4.65,-10.192 -5.82,-20.539 -5.82,-28.281 0,-7.258 1.02,-18.508 6.13,-29.141 5.67,-11.399 13.56,-17.5 14.57,-17.5 0.59,0 0.86,0.281 0.86,1.019 z"
       style="fill:#000000;fill-opacity:1;fill-rule:nonzero;stroke:none"
       id="path510" /><path
       d="m 1489.69,429.02 c 0,2.621 -2.19,4.808 -4.81,4.808 -2.77,0 -4.96,-2.187 -4.96,-4.808 0,-2.77 2.19,-4.961 4.96,-4.961 2.62,0 4.81,2.191 4.81,4.961 z"
       style="fill:#000000;fill-opacity:1;fill-rule:nonzero;stroke:none"
       id="path512" /><path
       d="m 1524.53,429.02 c 0,7.152 -1.01,18.402 -6.09,29.031 -5.55,11.359 -13.6,17.5 -14.46,17.5 -0.58,0 -1.01,-0.43 -1.01,-1.02 0,-0.269 0,-0.429 1.76,-2.191 9.18,-9.18 14.41,-23.899 14.41,-43.32 0,-16.008 -3.36,-32.379 -14.88,-44.02 -1.29,-1.172 -1.29,-1.328 -1.29,-1.602 0,-0.589 0.43,-1.019 1.01,-1.019 0.86,0 9.34,6.41 14.73,18.211 4.81,10.23 5.82,20.582 5.82,28.43 z"
       style="fill:#000000;fill-opacity:1;fill-rule:nonzero;stroke:none"
       id="path514" /><path
       d="m 507.148,997.422 c 0,0.199 -0.117,0.699 -0.738,0.699 -0.199,0 -0.32,-0.07 -1.019,-0.82 l -4.61,-5.11 c -0.621,0.93 -3.633,5.93 -11.011,5.93 -14.93,0 -29.809,-14.68 -29.809,-30.07 0,-10.629 7.379,-18.25 18.129,-18.25 2.93,0 5.93,0.629 8.32,1.57 3.36,1.359 4.61,2.688 5.738,4.059 0.622,-1.68 2.383,-4.059 3.012,-4.059 0.309,0 0.539,0.188 0.539,0.188 0.082,0.121 0.711,2.742 1.02,4.062 l 1.25,5.117 c 0.312,1.141 0.621,2.313 0.941,3.442 0.738,2.929 0.738,3.121 4.61,3.121 0.308,0 1.011,0.121 1.011,1.371 0,0.508 -0.312,0.707 -0.82,0.707 -1.563,0 -5.512,-0.199 -6.992,-0.199 -2.071,0 -7.27,0.199 -9.379,0.199 -0.5,0 -1.32,0 -1.32,-1.328 0,-0.75 0.5,-0.75 1.949,-0.75 0.121,0 1.992,0 3.551,-0.11 1.761,-0.203 2.07,-0.39 2.07,-1.25 0,-0.632 -0.699,-3.519 -1.442,-6.019 -1.878,-7.301 -10.429,-8.043 -12.808,-8.043 -6.371,0 -13.32,3.742 -13.32,13.98 0,2.071 0.621,13.012 7.57,21.641 3.68,4.488 10.121,8.551 16.68,8.551 6.761,0 10.75,-5.11 10.75,-12.813 0,-2.687 -0.239,-2.687 -0.239,-3.437 0,-0.621 0.739,-0.621 0.938,-0.621 0.859,0 0.859,0.121 1.25,1.371 z"
       style="fill:#0000ff;fill-opacity:1;fill-rule:nonzero;stroke:none"
       id="path516" /><path
       d="m 524.379,970.898 c 0,1.25 0,1.25 -1.367,1.25 -3.012,-2.929 -7.192,-2.929 -9.063,-2.929 v -1.68 c 1.051,0 4.172,0 6.672,1.25 V 945.16 c 0,-1.57 0,-2.191 -4.601,-2.191 h -1.758 v -1.68 c 0.816,0 6.558,0.231 8.238,0.231 1.449,0 7.27,-0.231 8.32,-0.231 v 1.68 h -1.761 c -4.68,0 -4.68,0.621 -4.68,2.191 z"
       style="fill:#0000ff;fill-opacity:1;fill-rule:nonzero;stroke:none"
       id="path518" /><path
       d="m 928.949,623.949 c 0,0.231 -0.121,0.742 -0.75,0.742 -0.187,0 -0.308,-0.121 -1.051,-0.82 l -4.57,-5.121 c -0.629,0.941 -3.629,5.941 -11.058,5.941 -14.879,0 -29.758,-14.691 -29.758,-30.121 0,-10.621 7.379,-18.199 18.117,-18.199 2.891,0 5.941,0.617 8.32,1.559 3.321,1.332 4.571,2.691 5.75,4.058 0.621,-1.679 2.379,-4.058 3,-4.058 0.321,0 0.512,0.191 0.512,0.191 0.117,0.117 0.738,2.699 1.059,4.07 l 1.25,5.11 c 0.308,1.14 0.621,2.269 0.929,3.437 0.75,2.891 0.75,3.133 4.571,3.133 0.32,0 1.058,0.078 1.058,1.328 0,0.539 -0.308,0.742 -0.816,0.742 -1.563,0 -5.551,-0.203 -6.992,-0.203 -2.071,0 -7.309,0.203 -9.379,0.203 -0.512,0 -1.371,0 -1.371,-1.371 0,-0.699 0.55,-0.699 2,-0.699 0.109,0 1.992,0 3.55,-0.121 1.758,-0.199 2.071,-0.43 2.071,-1.25 0,-0.621 -0.743,-3.551 -1.442,-6.051 -1.879,-7.269 -10.429,-8.008 -12.82,-8.008 -6.359,0 -13.359,3.75 -13.359,13.938 0,2.109 0.628,13.051 7.621,21.68 3.629,4.492 10.121,8.562 16.679,8.562 6.758,0 10.7,-5.121 10.7,-12.82 0,-2.731 -0.192,-2.731 -0.192,-3.43 0,-0.633 0.742,-0.633 0.942,-0.633 0.82,0 0.82,0.082 1.25,1.332 z"
       style="fill:#0000ff;fill-opacity:1;fill-rule:nonzero;stroke:none"
       id="path520" /><path
       d="M 954.059,576.289 H 952.5 c -0.121,-1.059 -0.621,-3.75 -1.25,-4.18 -0.309,-0.308 -3.871,-0.308 -4.57,-0.308 h -8.559 c 4.891,4.289 6.57,5.621 9.258,7.808 3.441,2.731 6.68,5.621 6.68,10 0,5.621 -4.879,9.063 -10.821,9.063 -5.738,0 -9.687,-4.063 -9.687,-8.32 0,-2.301 1.961,-2.622 2.5,-2.622 1.019,0 2.39,0.86 2.39,2.5 0,0.86 -0.32,2.5 -2.703,2.5 1.453,3.25 4.571,4.301 6.762,4.301 4.691,0 7.07,-3.672 7.07,-7.422 0,-4.058 -2.89,-7.187 -4.371,-8.828 l -11.14,-11.172 c -0.508,-0.39 -0.508,-0.507 -0.508,-1.757 h 19.148 z"
       style="fill:#0000ff;fill-opacity:1;fill-rule:nonzero;stroke:none"
       id="path522" /><path
       d="m 644.77,100.59 c 0,0.191 -0.122,0.699 -0.75,0.699 -0.192,0 -0.309,-0.078 -1.051,-0.82 l -4.571,-5.1174 c -0.628,0.9375 -3.628,5.9374 -11.058,5.9374 -14.879,0 -29.762,-14.6874 -29.762,-30.0781 0,-10.6211 7.383,-18.2421 18.121,-18.2421 2.891,0 5.942,0.621 8.321,1.5625 3.32,1.3671 4.57,2.6992 5.75,4.0585 0.621,-1.6796 2.378,-4.0585 3,-4.0585 0.32,0 0.511,0.1992 0.511,0.1992 0.117,0.1093 0.739,2.7304 1.059,4.0586 l 1.25,5.1211 c 0.308,1.1289 0.621,2.3007 0.93,3.4296 0.75,2.9297 0.75,3.129 4.57,3.129 0.32,0 1.058,0.121 1.058,1.371 0,0.5 -0.308,0.6993 -0.82,0.6993 -1.558,0 -5.547,-0.1993 -6.988,-0.1993 -2.07,0 -7.309,0.1993 -9.379,0.1993 -0.512,0 -1.371,0 -1.371,-1.3282 0,-0.7421 0.551,-0.7421 2,-0.7421 0.109,0 1.988,0 3.551,-0.1172 1.757,-0.1914 2.07,-0.3907 2.07,-1.25 0,-0.6211 -0.742,-3.5118 -1.441,-6.0118 -1.879,-7.3085 -10.43,-8.0507 -12.821,-8.0507 -6.359,0 -13.359,3.75 -13.359,13.9804 0,2.0703 0.629,13.0118 7.621,21.6407 3.629,4.5 10.117,8.5586 16.68,8.5586 6.757,0 10.699,-5.1172 10.699,-12.8086 0,-2.6993 -0.192,-2.6993 -0.192,-3.4414 0,-0.629 0.743,-0.629 0.942,-0.629 0.82,0 0.82,0.1211 1.25,1.3711 z"
       style="fill:#0000ff;fill-opacity:1;fill-rule:nonzero;stroke:none"
       id="path524" /><path
       d="m 659.141,60 c 3.668,0 6.25,-2.5 6.25,-7.5 0,-5.7383 -3.442,-7.5 -6.012,-7.5 -1.879,0 -6.059,0.5117 -7.93,3.3203 2.18,0 2.692,1.5586 2.692,2.6211 0,1.4375 -1.129,2.5 -2.582,2.5 -1.25,0 -2.61,-0.8633 -2.61,-2.7422 0,-4.3711 4.801,-7.1797 10.43,-7.1797 6.441,0 10.93,4.3711 10.93,8.9805 0,3.6289 -2.93,7.2695 -8.039,8.3203 4.8,1.7578 6.558,5.1992 6.558,8.1289 0,3.6289 -4.137,6.3594 -9.379,6.3594 -5.07,0 -9.058,-2.5 -9.058,-6.25 0,-1.5586 1.058,-2.418 2.418,-2.418 1.453,0 2.39,1.0586 2.39,2.3086 0,1.3594 -0.937,2.3789 -2.39,2.5 1.64,1.9922 4.769,2.5 6.57,2.5 2.07,0 5,-1.0586 5,-5 0,-2 -0.629,-4.1797 -1.879,-5.5078 -1.48,-1.8008 -2.809,-1.8828 -5.121,-2.1133 -1.129,-0.0781 -1.25,-0.0781 -1.438,-0.0781 -0.121,0 -0.55,-0.1211 -0.55,-0.6289 C 655.391,60 655.82,60 656.641,60 Z"
       style="fill:#0000ff;fill-opacity:1;fill-rule:nonzero;stroke:none"
       id="path526" /><path
       d="m 2398.59,979.691 c -10.58,-5.781 -11.17,-12.703 -11.17,-13.953 0,-3.976 3.91,-6.558 8.99,-6.558 8.86,0 16.01,8.398 16.01,9.492 0,0.308 -0.23,0.43 -0.58,0.43 -0.59,0 -2.66,-0.782 -3.83,-2.34 -1.17,-1.602 -3.32,-4.692 -8.09,-4.692 -3.83,0 -8.01,2.032 -8.01,6.02 0,2.57 3.01,10.43 11.41,10.738 2.5,0.082 4.34,1.992 4.34,2.582 0,0.27 -0.24,0.352 -0.47,0.352 -7.5,0.308 -9.03,3.976 -9.03,6.09 0,1.25 0.75,7.07 8.25,7.07 1.01,0 5,-0.152 5,-2.934 0,-0.898 -0.39,-1.636 -0.59,-1.91 -0.16,-0.156 -0.31,-0.387 -0.31,-0.59 0,-0.386 0.43,-0.386 0.58,-0.386 1.57,0 4.85,2.07 4.85,5.078 0,3.16 -3.67,3.672 -6.02,3.672 -7.26,0 -16.25,-5.782 -16.25,-12.262 0,-3.168 2.35,-5.078 4.92,-5.899 z"
       style="fill:#00ffff;fill-opacity:1;fill-rule:nonzero;stroke:none"
       id="path528" /><path
       d="m 2436.29,947.578 c 0,0.152 0,0.274 -0.9,1.172 -6.6,6.68 -8.36,16.762 -8.36,24.922 0,9.258 2.03,18.519 8.59,25.078 0.67,0.66 0.67,0.738 0.67,0.941 0,0.389 -0.16,0.539 -0.51,0.539 -0.55,0 -5.31,-3.628 -8.48,-10.39 -2.65,-5.86 -3.32,-11.75 -3.32,-16.168 0,-4.184 0.55,-10.582 3.48,-16.684 3.24,-6.476 7.77,-10 8.32,-10 0.35,0 0.51,0.203 0.51,0.59 z"
       style="fill:#00ffff;fill-opacity:1;fill-rule:nonzero;stroke:none"
       id="path530" /><path
       d="m 2479.8,997.27 c 0,0.152 -0.07,0.582 -0.58,0.582 -0.16,0 -0.24,-0.122 -0.82,-0.661 l -3.67,-4.101 c -0.51,0.738 -2.93,4.762 -8.83,4.762 -11.92,0 -23.87,-11.762 -23.87,-24.102 0,-8.52 5.94,-14.57 14.53,-14.57 2.31,0 4.73,0.511 6.64,1.25 2.7,1.05 3.68,2.148 4.61,3.242 0.47,-1.332 1.92,-3.242 2.42,-3.242 0.24,0 0.39,0.16 0.39,0.16 0.08,0.07 0.59,2.14 0.86,3.238 l 0.98,4.102 c 0.27,0.898 0.51,1.84 0.74,2.73 0.59,2.352 0.59,2.5 3.68,2.5 0.27,0 0.85,0.078 0.85,1.102 0,0.429 -0.27,0.578 -0.7,0.578 -1.25,0 -4.41,-0.149 -5.55,-0.149 -1.68,0 -5.86,0.149 -7.5,0.149 -0.43,0 -1.09,0 -1.09,-1.09 0,-0.59 0.39,-0.59 1.56,-0.59 0.08,0 1.6,0 2.85,-0.07 1.41,-0.16 1.68,-0.36 1.68,-1.02 0,-0.468 -0.58,-2.808 -1.17,-4.8 -1.52,-5.86 -8.36,-6.45 -10.27,-6.45 -5.08,0 -10.66,3.008 -10.66,11.168 0,1.684 0.5,10.434 6.09,17.352 2.93,3.59 8.08,6.832 13.32,6.832 5.43,0 8.59,-4.102 8.59,-10.231 0,-2.191 -0.15,-2.191 -0.15,-2.781 0,-0.5 0.58,-0.5 0.74,-0.5 0.66,0 0.66,0.07 1.01,1.09 z"
       style="fill:#00ffff;fill-opacity:1;fill-rule:nonzero;stroke:none"
       id="path532" /><path
       d="m 2493.59,976.02 c 0,1.011 0,1.011 -1.09,1.011 -2.42,-2.34 -5.74,-2.34 -7.27,-2.34 v -1.332 c 0.86,0 3.36,0 5.36,1.02 v -18.91 c 0,-1.25 0,-1.758 -3.68,-1.758 h -1.4 v -1.332 c 0.66,0 5.23,0.16 6.56,0.16 1.17,0 5.82,-0.16 6.68,-0.16 v 1.332 h -1.41 c -3.75,0 -3.75,0.508 -3.75,1.758 z"
       style="fill:#00ffff;fill-opacity:1;fill-rule:nonzero;stroke:none"
       id="path534" /><path
       d="m 2520.31,973.672 c 0,4.058 -0.58,10.508 -3.47,16.558 -3.17,6.532 -7.78,10 -8.25,10 -0.35,0 -0.58,-0.23 -0.58,-0.539 0,-0.203 0,-0.281 0.97,-1.25 5.28,-5.281 8.25,-13.671 8.25,-24.769 0,-9.184 -1.92,-18.512 -8.48,-25.152 -0.74,-0.668 -0.74,-0.79 -0.74,-0.942 0,-0.308 0.23,-0.59 0.58,-0.59 0.47,0 5.32,3.672 8.4,10.434 2.74,5.816 3.32,11.758 3.32,16.25 z"
       style="fill:#00ffff;fill-opacity:1;fill-rule:nonzero;stroke:none"
       id="path536" /><path
       d="m 2655.62,733.441 c -10.58,-5.742 -11.17,-12.66 -11.17,-13.91 0,-4.019 3.91,-6.601 9.03,-6.601 8.82,0 15.97,8.441 15.97,9.531 0,0.309 -0.23,0.391 -0.58,0.391 -0.59,0 -2.66,-0.743 -3.83,-2.34 -1.17,-1.563 -3.32,-4.653 -8.09,-4.653 -3.83,0 -8,1.993 -8,6.02 0,2.57 3,10.391 11.44,10.742 2.5,0.078 4.34,1.988 4.34,2.578 0,0.231 -0.28,0.313 -0.51,0.313 -7.5,0.347 -9.02,4.019 -9.02,6.09 0,1.25 0.78,7.109 8.28,7.109 0.97,0 5,-0.191 5,-2.93 0,-0.941 -0.43,-1.679 -0.59,-1.91 -0.19,-0.16 -0.35,-0.43 -0.35,-0.59 0,-0.429 0.43,-0.429 0.58,-0.429 1.61,0 4.85,2.109 4.85,5.078 0,3.16 -3.67,3.672 -6.02,3.672 -7.22,0 -16.25,-5.743 -16.25,-12.223 0,-3.168 2.35,-5.117 4.92,-5.938 z"
       style="fill:#00ffff;fill-opacity:1;fill-rule:nonzero;stroke:none"
       id="path538" /><path
       d="m 2693.32,701.371 c 0,0.149 0,0.231 -0.9,1.168 -6.6,6.641 -8.32,16.723 -8.32,24.922 0,9.219 1.99,18.48 8.56,25.078 0.66,0.66 0.66,0.742 0.66,0.902 0,0.43 -0.16,0.579 -0.47,0.579 -0.58,0 -5.35,-3.668 -8.51,-10.43 -2.66,-5.82 -3.32,-11.711 -3.32,-16.129 0,-4.18 0.58,-10.582 3.47,-16.68 3.28,-6.519 7.78,-10 8.36,-10 0.31,0 0.47,0.16 0.47,0.59 z"
       style="fill:#00ffff;fill-opacity:1;fill-rule:nonzero;stroke:none"
       id="path540" /><path
       d="m 2736.84,751.02 c 0,0.191 -0.08,0.582 -0.59,0.582 -0.16,0 -0.23,-0.082 -0.82,-0.661 l -3.67,-4.062 c -0.51,0.742 -2.93,4.723 -8.83,4.723 -11.91,0 -23.83,-11.762 -23.83,-24.063 0,-8.519 5.9,-14.609 14.49,-14.609 2.35,0 4.73,0.511 6.68,1.25 2.66,1.09 3.64,2.191 4.57,3.281 0.51,-1.371 1.92,-3.281 2.43,-3.281 0.23,0 0.39,0.199 0.39,0.199 0.11,0.07 0.58,2.141 0.86,3.242 l 0.97,4.059 c 0.28,0.941 0.51,1.84 0.78,2.769 0.55,2.313 0.55,2.5 3.64,2.5 0.27,0 0.86,0.082 0.86,1.063 0,0.429 -0.28,0.578 -0.67,0.578 -1.25,0 -4.41,-0.149 -5.58,-0.149 -1.68,0 -5.86,0.149 -7.5,0.149 -0.43,0 -1.1,0 -1.1,-1.051 0,-0.59 0.43,-0.59 1.6,-0.59 0.08,0 1.57,0 2.82,-0.07 1.4,-0.199 1.68,-0.359 1.68,-1.02 0,-0.507 -0.59,-2.847 -1.18,-4.839 -1.52,-5.821 -8.32,-6.411 -10.27,-6.411 -5.08,0 -10.66,3.012 -10.66,11.172 0,1.68 0.5,10.43 6.09,17.34 2.93,3.559 8.09,6.84 13.32,6.84 5.43,0 8.59,-4.102 8.59,-10.27 0,-2.152 -0.15,-2.152 -0.15,-2.742 0,-0.5 0.58,-0.5 0.74,-0.5 0.66,0 0.66,0.071 1.02,1.09 z"
       style="fill:#00ffff;fill-opacity:1;fill-rule:nonzero;stroke:none"
       id="path542" /><path
       d="m 2756.95,712.891 h -1.25 c -0.08,-0.821 -0.5,-3.012 -1.01,-3.321 -0.24,-0.269 -3.09,-0.269 -3.67,-0.269 h -6.84 c 3.94,3.429 5.27,4.527 7.42,6.25 2.78,2.179 5.35,4.527 5.35,8 0,4.5 -3.9,7.269 -8.67,7.269 -4.57,0 -7.73,-3.242 -7.73,-6.679 0,-1.84 1.56,-2.071 1.99,-2.071 0.82,0 1.91,0.66 1.91,1.989 0,0.671 -0.27,1.992 -2.18,1.992 1.17,2.578 3.67,3.437 5.43,3.437 3.75,0 5.66,-2.929 5.66,-5.937 0,-3.242 -2.34,-5.742 -3.48,-7.071 l -8.94,-8.902 c -0.39,-0.348 -0.39,-0.43 -0.39,-1.449 h 15.31 z"
       style="fill:#00ffff;fill-opacity:1;fill-rule:nonzero;stroke:none"
       id="path544" /><path
       d="m 2777.38,727.461 c 0,4.059 -0.58,10.469 -3.51,16.559 -3.17,6.492 -7.74,10 -8.25,10 -0.35,0 -0.58,-0.231 -0.58,-0.579 0,-0.16 0,-0.242 0.98,-1.25 5.27,-5.242 8.28,-13.671 8.28,-24.73 0,-9.18 -1.92,-18.512 -8.52,-25.191 -0.74,-0.668 -0.74,-0.75 -0.74,-0.899 0,-0.351 0.23,-0.59 0.58,-0.59 0.51,0 5.32,3.668 8.4,10.43 2.78,5.82 3.36,11.719 3.36,16.25 z"
       style="fill:#00ffff;fill-opacity:1;fill-rule:nonzero;stroke:none"
       id="path546" /><path
       d="m 2421.48,60.6211 c -10.58,-5.7422 -11.17,-12.6523 -11.17,-13.9023 0,-4.0196 3.91,-6.5977 9.03,-6.5977 8.82,0 15.97,8.3984 15.97,9.4883 0,0.3515 -0.23,0.4297 -0.58,0.4297 -0.59,0 -2.66,-0.7383 -3.83,-2.3399 -1.17,-1.5703 -3.32,-4.6484 -8.09,-4.6484 -3.83,0 -8.01,1.9883 -8.01,5.9687 0,2.5821 3.01,10.4297 11.45,10.75 2.5,0.1094 4.34,2.0313 4.34,2.6094 0,0.2422 -0.28,0.3203 -0.51,0.3203 -7.5,0.3516 -9.03,4.0196 -9.03,6.0899 0,1.25 0.79,7.0703 8.29,7.0703 0.97,0 5,-0.1602 5,-2.8906 0,-0.9375 -0.43,-1.6797 -0.59,-1.9493 -0.2,-0.1601 -0.35,-0.3984 -0.35,-0.5507 0,-0.4297 0.43,-0.4297 0.58,-0.4297 1.61,0 4.85,2.0703 4.85,5.082 0,3.1602 -3.67,3.668 -6.02,3.668 -7.22,0 -16.25,-5.7383 -16.25,-12.2696 0,-3.1601 2.35,-5.0703 4.92,-5.8984 z"
       style="fill:#00ffff;fill-opacity:1;fill-rule:nonzero;stroke:none"
       id="path548" /><path
       d="m 2459.18,28.5195 c 0,0.1914 0,0.2696 -0.9,1.1719 -6.6,6.6797 -8.32,16.7578 -8.32,24.918 0,9.2617 1.99,18.5117 8.56,25.082 0.66,0.6602 0.66,0.7774 0.66,0.9297 0,0.3984 -0.16,0.5898 -0.47,0.5898 -0.59,0 -5.35,-3.6718 -8.51,-10.4296 -2.66,-5.8204 -3.32,-11.7618 -3.32,-16.1719 0,-4.1406 0.58,-10.5899 3.47,-16.6406 3.28,-6.5196 7.77,-10 8.36,-10 0.31,0 0.47,0.1523 0.47,0.5507 z"
       style="fill:#00ffff;fill-opacity:1;fill-rule:nonzero;stroke:none"
       id="path550" /><path
       d="m 2502.7,78.1992 c 0,0.1602 -0.08,0.5899 -0.59,0.5899 -0.16,0 -0.23,-0.0782 -0.82,-0.668 l -3.67,-4.1016 c -0.51,0.75 -2.93,4.7696 -8.83,4.7696 -11.91,0 -23.83,-11.7578 -23.83,-24.0977 0,-8.4805 5.9,-14.5703 14.49,-14.5703 2.35,0 4.73,0.5 6.68,1.25 2.66,1.0898 3.64,2.1484 4.57,3.2383 0.51,-1.3281 1.92,-3.2383 2.42,-3.2383 0.24,0 0.4,0.1484 0.4,0.1484 0.11,0.0821 0.58,2.1914 0.86,3.25 l 0.97,4.1016 c 0.27,0.8984 0.51,1.8281 0.78,2.7305 0.55,2.3476 0.55,2.5 3.64,2.5 0.27,0 0.85,0.1172 0.85,1.0976 0,0.4219 -0.27,0.5821 -0.66,0.5821 -1.25,0 -4.41,-0.1602 -5.58,-0.1602 -1.68,0 -5.86,0.1602 -7.5,0.1602 -0.43,0 -1.1,0 -1.1,-1.0899 0,-0.5898 0.43,-0.5898 1.6,-0.5898 0.08,0 1.57,0 2.82,-0.0821 1.4,-0.1484 1.68,-0.3086 1.68,-0.9687 0,-0.5117 -0.59,-2.8516 -1.18,-4.8516 -1.52,-5.8203 -8.32,-6.3984 -10.27,-6.3984 -5.08,0 -10.66,2.9687 -10.66,11.168 0,1.6406 0.5,10.3906 6.09,17.3007 2.93,3.6016 8.09,6.8399 13.32,6.8399 5.43,0 8.59,-4.0586 8.59,-10.2305 0,-2.1875 -0.15,-2.1875 -0.15,-2.7773 0,-0.4727 0.58,-0.4727 0.74,-0.4727 0.66,0 0.66,0.082 1.02,1.0625 z"
       style="fill:#00ffff;fill-opacity:1;fill-rule:nonzero;stroke:none"
       id="path552" /><path
       d="m 2514.22,45.7383 c 2.93,0 5,-1.9883 5,-6.0078 0,-4.5703 -2.74,-5.9805 -4.84,-5.9805 -1.49,0 -4.81,0.3906 -6.33,2.6602 1.75,0 2.18,1.25 2.18,2.0703 0,1.1679 -0.93,1.9883 -2.11,1.9883 -0.97,0 -2.07,-0.668 -2.07,-2.1485 0,-3.5195 3.83,-5.7422 8.33,-5.7422 5.19,0 8.74,3.4727 8.74,7.1524 0,2.9297 -2.3,5.8593 -6.4,6.6797 3.83,1.3984 5.27,4.1796 5.27,6.4804 0,2.9297 -3.36,5.0782 -7.5,5.0782 -4.1,0 -7.26,-1.9883 -7.26,-5 0,-1.25 0.82,-1.918 1.91,-1.918 1.17,0 1.91,0.8594 1.91,1.8398 0,1.0899 -0.74,1.9102 -1.91,1.9883 1.33,1.6016 3.83,2.0313 5.24,2.0313 1.67,0 4.02,-0.8594 4.02,-4.0196 0,-1.5625 -0.51,-3.3203 -1.52,-4.4101 -1.14,-1.4102 -2.23,-1.4922 -4.07,-1.6407 -0.93,-0.121 -1.01,-0.121 -1.17,-0.121 -0.08,0 -0.43,-0.0782 -0.43,-0.4688 0,-0.5117 0.35,-0.5117 1.02,-0.5117 z"
       style="fill:#00ffff;fill-opacity:1;fill-rule:nonzero;stroke:none"
       id="path554" /><path
       d="m 2543.24,54.6094 c 0,4.1015 -0.58,10.5117 -3.51,16.6015 -3.17,6.4883 -7.74,10 -8.25,10 -0.35,0 -0.58,-0.2695 -0.58,-0.5898 0,-0.1523 0,-0.2695 0.98,-1.2422 5.27,-5.2773 8.28,-13.6797 8.28,-24.7695 0,-9.1406 -1.92,-18.4805 -8.52,-25.1602 -0.74,-0.6601 -0.74,-0.7383 -0.74,-0.9297 0,-0.3203 0.23,-0.5507 0.58,-0.5507 0.51,0 5.32,3.6328 8.4,10.3906 2.78,5.8594 3.36,11.7617 3.36,16.25 z"
       style="fill:#00ffff;fill-opacity:1;fill-rule:nonzero;stroke:none"
       id="path556" /></g></svg>
